<?xml version="1.0" standalone="no"?>
<!DOCTYPE svg PUBLIC "-//W3C//DTD SVG 1.1//EN" "http://www.w3.org/Graphics/SVG/1.1/DTD/svg11.dtd" >
<svg xmlns="http://www.w3.org/2000/svg">
<metadata></metadata>
<defs>
<font id="gismonda_fgregular" horiz-adv-x="1114" >
<font-face units-per-em="2048" ascent="1638" descent="-410" />
<missing-glyph horiz-adv-x="614" />
<glyph horiz-adv-x="0" />
<glyph unicode="&#xd;" horiz-adv-x="614" />
<glyph unicode=" "  horiz-adv-x="614" />
<glyph unicode="&#x09;" horiz-adv-x="614" />
<glyph unicode="&#xa0;" horiz-adv-x="614" />
<glyph unicode="!" horiz-adv-x="532" d="M115 25q0 25 24 61q41 61 133 61q37 0 59.5 -28.5t22.5 -65.5t-67 -63q-55 -23 -99 -23q-74 0 -73 58zM129 1096q0 412 113 411q82 0 102.5 -106.5t20.5 -302.5q0 -289 -13 -426q-28 -280 -116 -393q-16 20 -39 102q-68 252 -68 715z" />
<glyph unicode="&#x22;" horiz-adv-x="720" d="M111 1364q0 31 12 53q41 74 102 74q39 0 70 -33t31 -72q0 -57 -39 -169.5t-76 -149.5q-25 8 -37 68q23 66 23 90q0 49 -43 60t-43 79zM418 1356q0 31 12 53q41 74 102 74q39 0 70 -33t31 -72q0 -57 -39 -169.5t-76 -149.5q-27 8 -37 67q23 66 23 88q0 51 -43 62.5 t-43 79.5zM418 1356q0 -68 43 -79t43 -63q0 -23 -23 -88l15 -8q43 41 90 127t47 137q0 37 -32 69t-69 32q-61 0 -102 -74q-12 -23 -12 -53z" />
<glyph unicode="#" horiz-adv-x="1028" d="M29 641q0 33 198 41l23 115q-178 14 -178 82q0 94 211 96q27 150 90 446q23 90 76 90t61 -2q33 -8 31 -39v-12q-4 -100 -33 -244q-23 -119 -47 -239l121 -4q29 150 92 450q25 90 76 90q98 0 98 -18q0 4 -10 -43q-25 -164 -78 -487q-2 2 57 2q207 0 207 -39 q0 -63 -281 -103q-8 -55 -22 -125q113 -2 158 -10q102 -20 102 -88q0 -33 -57 -61q-49 -27 -86 -27q-74 0 -158 6q-14 -55 -41 -162q-23 -96 -47 -194q-37 -123 -98 -164q-33 78 -33 162q0 154 41 370l-119 13q-59 -250 -72 -293q-61 -213 -118 -252q-33 78 -33 162 q0 145 47 403q-66 8 -84 12q-41 12 -76 39q-18 16 -18 27zM418 692l114 4l19 107q-59 -6 -115 -8q-6 -43 -18 -103z" />
<glyph unicode="$" horiz-adv-x="1081" d="M16 1036q0 80 168 103l234 12q0 221 -23 281q109 55 211 75v-356h65.5h69.5q92 0 136 -4q29 -4 64.5 -20.5t35.5 -39.5q0 -29 -92 -100.5t-125 -71.5q-47 0 -84 37q35 12 83 52t48 69q0 18 -19 19h-460q-74 0 -74 -66q0 -47 352 -285q135 -92 135 -190q0 -72 -135 -225 v-246q-121 -80 -203 -90q6 53 13 160q-68 -57 -154 -101q-100 -49 -172 -49q33 72 268 276q215 186 215 256q0 39 -51 76q-150 90 -301 183q-205 135 -205 245z" />
<glyph unicode="%" horiz-adv-x="1540" d="M20 1229q0 90 43 151q47 70 134 70h137h139q84 0 139.5 -63.5t55.5 -149.5q0 -141 -93 -272q-100 -143 -235 -144q-141 0 -254 174q-66 100 -66 234zM164 1223q0 -92 31 -176q39 -104 108 -136q20 -10 27 -10q70 0 133 131q53 113 53 193q0 96 -36 126.5t-134 30.5 q-94 0 -135 -30q-47 -37 -47 -129zM408 -16q0 188 147 553l242 540q35 111 121 326q43 88 102 88q14 0 27 -6v2q36 -19 36 -74q0 -70 -59 -225q-45 -113 -92 -225q-33 -94 -103 -283q-63 -152 -196 -414q-166 -328 -215 -356q-10 37 -10 74zM854 352q0 90 43 152 q47 70 133 69h139q92 2 138 2q86 0 140 -64.5t54 -150.5q0 -141 -92 -272q-100 -143 -235 -143q-141 0 -254 174q-66 100 -66 233zM997 346q0 -92 31 -176q39 -104 109 -135q23 -10 26 -10q72 0 133 131q54 112 54 192q0 96 -36 128t-134 32q-94 0 -136 -33 q-47 -37 -47 -129z" />
<glyph unicode="&#x26;" horiz-adv-x="1384" d="M57 340q0 117 72 238q43 76 131 174q72 80 72 94q0 6 -66.5 109.5t-66.5 205.5q0 129 92 174q63 33 207 33q274 0 274 -184q0 -84 -104.5 -220.5t-104.5 -134.5q0 -29 147.5 -228.5t172.5 -203.5q90 92 172 385q39 139 39 283q0 145 -50 180q-23 16 -184 37q25 70 150 70 q150 0 190 -49q35 -43 35 -197q0 -246 -135 -522q-41 -76 -82 -150q-57 -109 -57 -147q156 -223 235 -224q20 0 29 50q10 57 39 75q23 2 16 2q23 0 39 -35.5t16 -60.5q0 -51 -59 -82q-49 -27 -107 -26q-84 0 -185 75.5t-112 75.5q-23 0 -67 -31q-33 -23 -64 -45 q-133 -88 -292 -88q-174 0 -283 97.5t-109 269.5zM260 352q0 -127 74 -208t201 -81q53 0 131 68q59 52 106 115q-92 170 -344 450v2q-168 -178 -168 -346zM348 1184q0 -94 131 -207q33 2 89.5 86t56.5 121q0 55 -39 88t-97 33v2q-59 -2 -100 -34t-41 -89z" />
<glyph unicode="'" horiz-adv-x="413" d="M119 1323q0 55 22 88q18 25 53 51.5t62 26.5q35 0 60.5 -26.5t25.5 -61.5q0 -53 -60.5 -177t-103.5 -163q-23 8 -26 67q37 76 36 107q0 35 -34.5 43t-34.5 45z" />
<glyph unicode="(" horiz-adv-x="677" d="M47 666q0 41 27 147q51 193 157 379q117 205 254 319q57 47 95 56q-174 -354 -213 -455q-102 -262 -103 -489q0 -215 86 -394q76 -155 240 -323l-64 -21q-90 49 -194 135q-111 90 -166 166q-119 156 -119 480z" />
<glyph unicode=")" horiz-adv-x="677" d="M49 -117q340 324 340 785q0 227 -102 481q-23 55 -215 444q37 -10 94 -57q176 -145 305 -397q133 -260 133 -482q0 -211 -139 -450q-53 -92 -168 -193.5t-215 -148.5z" />
<glyph unicode="*" horiz-adv-x="663" d="M61 965q0 37 103 43q-12 45 -12 67q0 20 14 48t33 28q25 0 51 -39q18 -29 37 -57q76 66 131 65q47 0 47 -35q0 -18 -53 -94q47 -6 92 -10q51 -12 51 -61q0 -51 -51 -64q-18 -4 -90 -2q6 -10 18 -52t12 -52q0 -35 -16 -62q-20 -16 -49 -16q-53 0 -117 108q-47 -61 -92 -61 q-23 0 -43.5 19.5t-20.5 39.5q0 16 48 92q-29 8 -61 38t-32 57z" />
<glyph unicode="+" horiz-adv-x="778" d="M43 559q0 31 115 41q6 2 145 8q8 70 25 209q6 72 39 72q74 0 100 -275h48h52q170 0 170 -100q0 -29 -33.5 -57.5t-64.5 -28.5q-72 0 -166 8q-4 -244 -96 -243q-41 0 -68 36q-25 31 -24 76q0 33 8 154q-115 18 -146 26q-104 27 -104 74z" />
<glyph unicode="," horiz-adv-x="434" d="M119 94q0 55 22 88q18 25 53 51.5t62 26.5q35 0 60.5 -26.5t25.5 -61.5q0 -53 -60.5 -177t-103.5 -163q-23 8 -26 68q37 76 36 106q0 35 -34.5 43t-34.5 45z" />
<glyph unicode="-" horiz-adv-x="663" d="M61 791q0 96 158 96q178 0 281 -6q135 -7 170 -50q-94 -74 -178 -92q-203 -43 -351 -43q-35 0 -57.5 30t-22.5 65z" />
<glyph unicode="." horiz-adv-x="434" d="M98 61q0 80 72 127q47 31 72 31q77 0 77 -98q0 -59 -53 -100t-112 -41q-25 0 -40.5 28.5t-15.5 52.5z" />
<glyph unicode="/" horiz-adv-x="573" d="M-43 -14q0 184 193 659q76 193 151 383q92 229 166 377q43 86 102 86q64 0 64 -78q0 -76 -107 -338q-47 -133 -147 -395q-66 -152 -197 -412q-166 -328 -215 -358q-10 37 -10 76z" />
<glyph unicode="0" horiz-adv-x="1388" d="M92 977q0 307 154 432q135 111 450 111q160 0 222 -7q209 -20 321 -184q98 -145 98 -364q0 -168 -80 -394q-88 -248 -219 -405q-158 -186 -331 -186q-117 0 -287 163q-328 317 -328 834zM332 944q0 -500 213 -754q88 -104 153 -104q178 0 301 377q95 296 95 532 q0 168 -78 303.5t-293 135.5v2q-391 -2 -391 -492z" />
<glyph unicode="1" horiz-adv-x="528" d="M135 -61q29 156 29 450q0 160 -3 476.5t-3 473.5q0 37 -23 86v2q129 51 227 72v-1460q-133 -90 -227 -100z" />
<glyph unicode="2" horiz-adv-x="1277" d="M70 1284q0 152 151 191q133 35 344 34q236 0 379 -53q156 -55 156 -287q0 -166 -180 -413q-92 -125 -338 -394q-180 -199 -181 -243q0 -43 164 -43h436q27 0 54.5 16.5t27.5 40.5q0 -2 -57 133q6 2 23 2q45 0 65 -10q31 -14 67 -81.5t36 -102.5q0 -74 -68 -74l-1059 2 q41 90 148 207q127 137 256 274q166 186 251 330q115 188 115 340q0 139 -85 218t-226 79q-326 0 -326 -233q0 -23 7.5 -67t7.5 -67q-168 57 -168 201z" />
<glyph unicode="3" horiz-adv-x="1179" d="M61 362q0 150 162 222q6 -41 6 -191q0 -158 96.5 -249t254.5 -91q119 0 214 96.5t95 215.5q0 170 -105 319q-96 135 -254 227q285 311 285 418q0 104 -321 105q-217 0 -218 -93q0 -16 91 -196l-107 2q-37 29 -84 114t-47 125q0 135 432 136q141 0 256 -29 q174 -43 174 -137q0 -49 -92 -182q-66 -88 -131 -177q0 -16 90 -102q109 -106 164 -199q90 -143 90 -303q0 -201 -131 -301q-162 -125 -387 -125q-211 0 -358 90q-174 109 -175 305z" />
<glyph unicode="4" horiz-adv-x="1089" d="M80 541q0 236 166 534q172 311 375 406q57 27 149 26q123 0 207 -16q-12 -29 -29 -90q-6 -53 -6 -215q0 -268 10 -641l54 -51q-25 -20 -60 -68q0 -29 -2 -83t-2 -81q0 -156 31 -213q-18 -12 -232 -76v58v116q2 78 2 115q0 172 -8 182q-14 14 -203 15q-61 0 -182 -3 t-180 -3q-90 0 -90 88zM297 614q0 -94 86 -94h356q0 139 2 411.5t2 409.5q0 88 -61 89q-66 0 -168 -150q-72 -104 -121 -211q-96 -213 -96 -455z" />
<glyph unicode="5" horiz-adv-x="999" d="M47 -215q53 74 225 180q207 129 295 234q125 147 125 346q0 236 -143 315q-162 88 -483 88v4q0 18 20 133l49 273q10 49 21 149q88 -2 194 -2h195q131 2 194 2q174 0 174 -61q0 -72 -80.5 -148.5t-154.5 -89.5q8 49 48 104.5t40 71.5q-33 70 -88 70q-16 0 -369 -8 q-20 -33 -55 -365q352 0 532 -155q115 -100 115 -316q0 -223 -153 -407q-131 -158 -316 -277q-213 -135 -385 -141z" />
<glyph unicode="6" horiz-adv-x="1064" d="M63 633q0 279 162 563q186 328 443 328q4 0 10 -2h12q-127 -104 -243.5 -285.5t-159.5 -343.5q90 57 282 57q174 0 295 -94q133 -104 133 -274q0 -199 -133 -381q-143 -201 -334 -201q-115 0 -223 88q-92 72 -160 186q-84 141 -84 359zM258 575q0 -289 150 -417 q63 -55 118 -56q115 0 205 185q78 157 78 288q0 139 -76 207q-88 76 -186 76q-115 0 -164 -29q-88 -53 -111 -100q-14 -35 -14 -147v-7z" />
<glyph unicode="7" horiz-adv-x="1064" d="M29 1464q0 35 26 45v2q18 2 43 2q133 0 944 -8q-25 -76 -129 -227q-78 -113 -155 -225q-293 -457 -293 -854q0 -182 74 -338q16 -35 45 -105h-105q-139 66 -194.5 154t-55.5 244q0 379 512 1095q31 39 60 80q35 49 49 88q-57 37 -295 37h-115q-76 -2 -112 -2 q-133 0 -131 -68q51 -104 92 -178q-29 -6 -53 -6q-23 0 -41 6q-37 12 -101.5 113.5t-64.5 144.5z" />
<glyph unicode="8" horiz-adv-x="1202" d="M59 315q0 240 312 506q27 23 75 68q-23 18 -98.5 93t-105.5 126q-47 76 -47 162q0 147 106 196q115 53 303 54q205 0 297 -33q158 -53 158 -217q0 -94 -86 -209q-76 -100 -168 -160q12 -33 65 -78q291 -260 291 -491q0 -199 -139 -271q-156 -82 -365 -81q-352 0 -469 100 q-129 106 -129 235zM287 348q0 -121 96 -196q86 -68 211 -68q143 0 235 63q105 74 105 211q0 96 -109 267q-115 180 -202 180q-6 0 -58 -35q-117 -78 -190 -180q-88 -121 -88 -242zM391 1300q0 -88 76 -200q82 -121 164 -121q16 0 47 20q74 51 129 134q61 89 61 167 q0 145 -237 146v2q-2 0 -35 -2q-205 -8 -205 -146z" />
<glyph unicode="9" horiz-adv-x="1056" d="M70 1130q0 201 131 304q119 90 325 90q246 0 358.5 -118t112.5 -364q0 -238 -106 -526q-98 -268 -246 -479q-172 -244 -354 -256q12 23 69 102q358 510 359 776q-49 -29 -101 -55q-61 -31 -106 -31q-166 0 -309 199q-133 186 -133 358zM258 1161q0 -156 57 -289 q70 -156 197 -206q205 8 272 358q17 86 17 113q0 137 -77 218t-212 81q-119 0 -186.5 -78t-67.5 -197z" />
<glyph unicode=":" horiz-adv-x="434" d="M106 129q0 80 72 127q47 31 72 31q18 0 48 -40.5t30 -58.5q0 -57 -60 -94q-49 -29 -112 -28q-49 0 -50 63zM170 801q0 109 104 153q31 14 39 15q18 0 48 -40.5t30 -58.5q0 -57 -57 -92q-49 -31 -109 -30q-55 0 -55 53z" />
<glyph unicode=";" horiz-adv-x="434" d="M119 104q0 55 22 89q18 27 53 52t62 25q35 0 60.5 -25.5t25.5 -60.5q0 -53 -61.5 -158.5t-106.5 -146.5l-22 33q37 74 36 106q0 35 -34.5 43.5t-34.5 42.5zM180 801q0 53 43 103t96 50q29 0 54.5 -34.5t25.5 -63.5q0 -53 -52 -86t-107 -33q-59 0 -60 64z" />
<glyph unicode="&#x3c;" horiz-adv-x="1024" d="M176 705q0 61 36 111t93 71l535 188l16 -35q-176 -63 -264 -100q-45 -16 -129 -55q-35 -20 -60.5 -61.5t-25.5 -80.5q0 -106 196 -235q168 -110 297 -143l-14 -82q-51 10 -223 77q-96 35 -279 115q-178 88 -178 230z" />
<glyph unicode="=" horiz-adv-x="819" d="M33 825q0 63 65 84q35 12 117 13q408 0 451 -17q94 -4 94 -35q0 -68 -223 -102q-154 -25 -283 -25q-221 0 -221 82zM68 598q0 10 16 20q51 33 504 33q94 0 131 -10q76 -20 76 -86q0 -31 -36 -58.5t-67 -27.5q-76 0 -293 23q-240 25 -270 43q-61 35 -61 63z" />
<glyph unicode="&#x3e;" horiz-adv-x="1024" d="M129 995l14 82q74 -14 324 -92q88 -25 252 -88q90 -43 125 -78q55 -51 55 -131q0 -63 -41 -129.5t-96 -87.5l-600 -205l-25 53q106 37 318 113q59 20 159 66q35 20 59.5 65t24.5 86q0 154 -569 346z" />
<glyph unicode="?" horiz-adv-x="1105" d="M16 1403q0 43 31 65q18 14 69.5 26.5t78.5 12.5l634 4q70 0 112 -49t42 -119q0 -96 -137 -282q-129 -166 -258 -330q-137 -190 -137 -289q0 -82 38 -168q-201 20 -200 197q0 92 234.5 432t234.5 414q0 111 -252 110q-299 0 -326 -26q-16 -14 -16 -41t74 -164l-103 2 q-35 23 -77 93.5t-42 111.5zM311 57q0 59 46 98.5t106 39.5q25 0 47 -25.5t22 -48.5q0 -55 -52 -88t-109 -33q-59 0 -60 57z" />
<glyph unicode="@" horiz-adv-x="1458" d="M121 719q0 285 200.5 486.5t487.5 201.5q244 0 395 -139q154 -145 154 -387q0 -170 -92 -322q-106 -174 -267 -174q-92 0 -159 49q-45 -31 -66.5 -38t-79.5 -7q-90 0 -180 47q-109 55 -108 135q0 78 207.5 271.5t287.5 193.5q23 0 35 -14q2 14 2 29q0 25 -4 49l139 6 q-25 -31 -49 -223q-14 -127 -29 -252q-18 -102 -18 -92q0 -18 53 -19q27 0 37 2q88 23 143 152q45 106 45 215q0 190 -122.5 300.5t-315.5 110.5q-250 0 -403 -180q-145 -170 -146 -424q0 -223 145.5 -356t368.5 -133q274 0 482 164l8 -84q-240 -188 -494 -189 q-283 0 -467 166q-190 172 -190 455zM573 594q0 -39 70 -74q61 -31 105 -31q88 0 122 107q10 33 29 178q12 109 12 121q0 49 -20 49q-45 0 -181.5 -150.5t-136.5 -199.5z" />
<glyph unicode="A" horiz-adv-x="1236" d="M51 0q49 45 49 381q0 59 -2 177t-2 177q0 190 117 369q106 160 281 272q135 86 323 115q115 16 344 16v-1448q-74 -37 -217 -73q18 283 19 567q-6 4 -21 4q-78 0 -325.5 -75.5t-309.5 -121.5v-122q0 -100 12 -162q-90 -27 -268 -76zM297 596q0 -104 8 -160q104 45 270 94 q252 78 275 84q47 16 102 43q0 47 9 320q4 194 4 319q0 135 -97 136q-135 0 -276 -127q-111 -102 -193 -248q-102 -182 -102 -461z" />
<glyph unicode="B" horiz-adv-x="1218" d="M33 0q37 100 37 123l2 1296q0 29 -31 72l817 2q80 0 135.5 -58.5t55.5 -138.5q0 -98 -88 -192q-80 -76 -162 -150q10 -16 67 -71q137 -129 221 -293q95 -182 95 -352q0 -59 -56 -144q-59 -90 -113.5 -94t-246.5 -4l-590 -2q-84 0 -143 6zM274 90q14 -2 91 -2 q53 0 157.5 -13.5t157.5 -13.5q272 0 272 244q0 154 -110.5 321t-251.5 218q-100 -35 -155.5 -61.5t-160.5 -73.5v-619zM274 840l7 -6h6q78 0 243 104q143 90 218 164q90 92 90 194q0 154 -283 154q-236 0 -281 -16v-594z" />
<glyph unicode="C" horiz-adv-x="1126" d="M16 1214q0 137 72 220q76 90 209 90l702 2q33 0 90.5 -29.5t57.5 -58.5q0 -47 -76 -129q-57 -57 -113 -117l-122 2q10 20 79 94q55 59 56 105q0 73 -124 73h-3h-41q-29 -2 -43 -2q-47 0 -144 2h-141q-100 0 -160 -94q-49 -80 -49 -188q0 -324 193 -600q143 -207 452 -453 q113 -90 154 -164q-193 33 -430 226q-186 152 -346 354q-172 217 -238 440q-35 117 -35 227z" />
<glyph unicode="D" horiz-adv-x="1341" d="M82 1507l879 2q356 0 356 -383q0 -76 -49 -223q-129 -377 -484 -661q-281 -227 -694 -242q20 63 21 788l2 318q0 328 -31 401zM328 135q268 33 508 361q231 310 231 589q0 143 -80 254q-72 104 -217 105q-41 0 -123 2t-121 2q-199 0 -198 -25v-1288z" />
<glyph unicode="E" horiz-adv-x="1028" d="M6 1501h948q78 0 78 -90q0 -33 -67 -98q-49 -43 -99 -86l-118 2q133 102 133 172q0 55 -119 55h-447q-74 0 -73 -104q0 -182 18 -211q27 -8 78 -8h88q57 2 86 2q164 0 256 -29q-82 -76 -111 -76q-14 0 -39 6q-31 8 -38 11q-78 8 -248 8q-53 0 -68 -4q-24 -7 -24 -115v-25 v-51q2 -268 149 -459q109 -139 373 -317q70 -47 98 -84h-6q-197 0 -465 236q-258 223 -323 419q-16 51 -17 103v655q0 27 -21 57z" />
<glyph unicode="F" horiz-adv-x="1120" d="M88 0q29 61 29 119l-4 1276q0 55 -25 112l725 2q299 0 299 -90q0 -39 -68 -100l-98 -86l-127 2q4 6 76 74q55 51 55 80q0 27 -23.5 44t-49.5 17l-558 2q0 -25 -5 -77t-5 -79q0 -117 19 -143q41 -8 106 -8q283 0 395 4q-68 -102 -88 -102q-49 0 -144 9t-142 9 q-125 0 -144 -18l2 -881q0 -59 31 -94q-41 -20 -128 -36t-128 -36z" />
<glyph unicode="G" horiz-adv-x="1253" d="M70 1139q0 139 57 250q70 135 197 135l827 2q35 0 68.5 -28.5t33.5 -63.5q0 -61 -190 -252l-145 2q12 43 90 108q70 61 69 99q0 84 -237 84q-53 0 -156.5 -4.5t-155.5 -4.5q-121 0 -180 -133q-41 -98 -41 -237q0 -229 146 -473q86 -141 200 -263q157 -165 266 -165h1 q59 0 59 79q0 47 -3 143.5t-3 143.5v373q0 74 -158 74q-137 0 -201 -27q41 84 105 84l475 2q-27 -39 -27 -115v-815q0 -74 11 -131q-27 -6 -56 -6q-186 0 -467 199q-227 160 -403 397q-182 248 -182 543z" />
<glyph unicode="H" horiz-adv-x="1286" d="M86 0q20 70 20 145l-2 1125q0 33 -9 94t-9 92q154 45 231 72l2 -551l5 -2q78 2 327 88q170 63 342 125v270q80 23 236 82q-37 -49 -37 -246q0 -82 5 -248.5t5 -248.5q0 -94 -2 -283v-281q0 -130 29 -161l-240 -72v1081q-145 -31 -340 -96q-168 -55 -334 -113l-4 -690v-7 q0 -51 29 -87q-39 -12 -254 -88z" />
<glyph unicode="I" horiz-adv-x="438" d="M90 1450q86 27 258 74q-10 -115 -10 -275v-153q2 -102 2 -154l-2 -770q-1 -37 24 -84q-133 -55 -264 -88q12 59 15 250l4 899q0 233 -27 301z" />
<glyph unicode="J" horiz-adv-x="655" d="M39 0q262 311 280 526q6 68 7 174l-2 680q0 37 -41 80v2q51 10 243 62q0 -92 2 -288t2 -294q0 -371 -12 -416q-66 -246 -272 -436q-96 -90 -207 -90z" />
<glyph unicode="K" horiz-adv-x="1187" d="M100 6q33 49 33 606v99q0 229 -10 463q-2 70 -12 208q-8 95 -10 95l-1 -4q45 4 115 24q86 27 111 33l-4 -367l4 -2h4h14q10 -2 14 -2q117 0 244 103q135 106 135 219q0 16 -4 30l268 2q-37 -141 -194 -266q-37 -31 -53 -61l-2 -10q395 -619 395 -1018q0 -102 -27 -181 q-16 27 -69 187q-100 297 -215 524q-190 381 -336 381q-57 0 -114.5 -40t-63.5 -93q0 -14 -3 -119q-4 -111 -4 -289q0 -416 35 -438q-57 -27 -250 -84z" />
<glyph unicode="L" d="M86 2q51 125 51 518q0 834 -35 903v2q78 29 234 66q-8 -39 -8 -227v-146.5v-146.5v-545v-167v-167h174q115 -2 172 -2q205 0 220 10.5t15 34.5q0 47 -30 109q-29 49 -58 100l121 2q43 -61 84 -125q53 -86 53 -129q0 -47 -49 -72q-41 -20 -94 -20z" />
<glyph unicode="M" horiz-adv-x="1720" d="M106 1526l535 2q35 0 186 -43l-43 14q39 -12 68 -12q4 0 86 27.5t176 27.5q264 0 424 -182q154 -174 154 -442q0 -199 -109 -445q-104 -236 -248 -385q-53 -55 -88 -70q10 55 49 136q57 119 62 131q112 279 112 550q0 230 -108 414q-129 217 -338 217q-102 0 -102 -53 q0 -2 32 -59q37 -63 41 -72q74 -158 74 -383q0 -217 -76 -434q-78 -225 -215 -383q-20 -25 -65 -64q4 49 28 125q35 111 39 125q68 266 68 484q0 254 -80 452q-106 268 -319 269q-37 0 -70 -23t-33 -59v-1246q0 -59 47 -90q-90 -25 -266 -88q29 139 29 148l-4 1278 q0 68 -46 133z" />
<glyph unicode="N" horiz-adv-x="1384" d="M88 1522v2q246 -2 733 -4q252 -2 393 -179q127 -161 127 -419q0 -184 -93 -423t-218 -378q-78 -90 -147 -103q23 51 63 152q172 399 172 678q0 305 -110 432q-106 121 -244 156q-86 22 -303 22h-19q-84 0 -106.5 -28.5t-22.5 -120.5q0 -315 4 -949q0 -53 5 -157 q6 -70 45 -107q-31 -25 -131 -57q-86 -29 -144 -39q23 43 23 195v71q-2 49 -2 74q0 160 3 482.5t3 482.5q0 147 -31 217z" />
<glyph unicode="O" horiz-adv-x="1605" d="M61 1044q0 266 137.5 373t331.5 107h258q172 2 259 2q503 0 503 -461q0 -385 -227 -717q-236 -348 -516 -348q-203 0 -385 188q-160 162 -264 420q-96 240 -97 436zM293 1006q0 -522 266 -775q137 -131 248 -131q207 0 364 369q129 307 129 553q0 432 -460 432 q-264 0 -405.5 -82t-141.5 -366z" />
<glyph unicode="P" horiz-adv-x="1146" d="M80 1505v2h850q82 0 132 -46t50 -126q0 -279 -663 -549q-123 -49 -123 -75v-168q0 -414 45 -443q-20 -18 -117 -53q-66 -25 -133 -47q16 49 16 913q0 475 -10 510q-16 51 -47 82zM311 858q152 47 291 127q162 92 246 197q31 35 61 92q2 10 2 45q0 41 -24.5 81t-63.5 40 l-512 2v-584z" />
<glyph unicode="Q" horiz-adv-x="1638" d="M76 1081q0 276 171 369.5t488 93.5q287 0 377 -12q213 -31 340 -146q115 -102 115 -321q0 -139 -75 -369.5t-155 -353.5q-6 -10 -88 -106q-72 -84 -71 -95q0 -14 26 -14q68 0 142.5 41t117.5 41q37 0 78 -40t41 -77q0 -47 -29.5 -83t-74.5 -36q-29 0 -52.5 56.5 t-52.5 56.5q-20 0 -77.5 -35t-110.5 -35q-35 0 -69 28t-50 30q-23 -12 -68 -37q-78 -37 -184 -37q-262 0 -479 309q-176 252 -238 555q-22 104 -22 208v9zM303 1065q0 -553 270 -834q133 -139 242 -139q147 0 256 158q104 150 179 382t75 412q0 170 -94 283 q-100 119 -266 125q-59 2 -297 2q-174 0 -269.5 -106.5t-95.5 -282.5z" />
<glyph unicode="R" horiz-adv-x="1181" d="M59 1522h158h295q197 2 295 2q141 0 194 -23q90 -37 91 -158q0 -88 -70 -178q-37 -47 -129 -129q-70 -63 -70 -84q0 -16 54 -98q104 -160 190 -379q98 -249 98 -401q0 -51 -28 -74h-2q-53 0 -138 213q-145 375 -364 666q-16 4 -19 4q-55 0 -188 -68q-139 -72 -139 -119 v-149q0 -432 47 -461q-45 -27 -119 -49q-61 -18 -123 -37l4 112v-1l-4 1298q0 20 -16.5 64.5t-16.5 48.5zM274 1329q0 -332 23 -455q154 23 356 156q230 152 230 283q0 92 -62 131q-41 26 -256 26h-16q-186 0 -203 -4q-72 -20 -72 -137z" />
<glyph unicode="S" horiz-adv-x="1038" d="M80 1391q0 98 119 125q100 24 254 24h12q51 0 153.5 6t153.5 6q270 0 270 -94q0 -39 -84 -126t-127 -99q-12 -4 -32 -4q-31 0 -82 16q155 116 155 196q0 32 -108 32q-205 0 -373 -9q-23 -2 -33 -4q-16 -4 -26 -18q-14 -20 -15 -62q0 -63 132 -178q233 -205 239 -213 q129 -135 129 -248q0 -168 -237 -450q-246 -291 -410 -291q33 96 139 207q135 139 166 188q80 123 80 287q0 125 -123 262q-115 113 -227 225q-125 127 -125 222z" />
<glyph unicode="T" horiz-adv-x="1392" d="M63 1464q0 45 39 52q29 4 125 10q119 6 342 6q702 0 729 -12q60 -27 60 -66q0 -37 -98.5 -135t-139.5 -107q-10 -2 -28 -2q-29 0 -58 7q68 82 111 122q37 33 37 52q0 61 -299 61h-89h1q-10 -356 -11 -844q0 -526 31 -551q-141 -43 -256 -57q18 23 33 82q12 53 12 90 l-4 1280q-90 4 -190 4q-184 0 -185 -22q0 -51 45 -109l78 -90l-92 10q-53 27 -117 94q-76 78 -76 125z" />
<glyph unicode="U" horiz-adv-x="1325" d="M43 575q0 213 101.5 464t248.5 403q27 27 41 39q23 18 47 26q-150 -406 -153 -415q-70 -227 -70 -439q0 -205 107 -381q124 -202 315 -202h2q10 0 319 10q55 43 56 313q0 965 -51 1039q104 51 233 71v-1290q0 -72 59 -213l-696 2q-272 0 -415.5 149.5t-143.5 423.5z" />
<glyph unicode="V" horiz-adv-x="1179" d="M90 -4q43 39 43 272v445q0 41 2 123v120q0 377 -33 455v2q90 29 258 107q-10 -57 -22 -322q-25 -547 -25 -792q0 -291 35 -291q94 0 244 182q164 197 254 422q78 195 127 475q12 78 26 156q16 90 41 151q97 -96 97 -385q0 -391 -234 -717q-250 -346 -624 -403 q-35 -6 -134 -6q-29 0 -55 6z" />
<glyph unicode="W" horiz-adv-x="1728" d="M37 612q0 135 50 311.5t138 338.5q121 221 240 241q-221 -481 -221 -790q0 -217 114 -398q131 -209 336 -209q121 0 121 60q0 4 -18 31q-78 106 -111 182q-53 113 -53 219q0 160 59.5 384t136.5 364q74 127 177 157q-8 -80 -54 -268q-63 -272 -63 -535q0 -223 90 -399 q109 -221 309 -221q53 0 103 45l2 1085q0 78 -13 133q-10 35 -22 107q43 20 127 39q92 20 127 35q-18 -74 -21 -150l-14 -1224q0 -29 13.5 -72.5t29.5 -57.5q-76 0 -258 -2q-166 -2 -258 -2q-53 0 -123 29t-92 29q-106 -43 -146 -56q-68 -18 -153 -18q-297 0 -426 186 q-127 180 -127 426z" />
<glyph unicode="X" horiz-adv-x="1540" d="M102 182q0 104 220 379q152 182 305 367q-2 29 -113 123q-154 129 -209 188q-110 120 -110 217q0 35 127 35q120 0 120 -23q0 -6 -2 -18t-2 -18q0 -168 322 -367q88 78 178 156q104 98 160 172q-2 27 -88 34q-55 2 -111 7q-2 2 -2 8q0 43 117 43h78q51 -2 77 -2 q113 0 113 -51q0 -63 -210 -244.5t-210 -214.5q0 -35 170 -199q227 -217 314 -323q170 -203 170 -340q0 -61 -5 -95l-329 2q20 100 20 150q0 150 -135 338q-109 154 -256 268q-72 55 -82 55q-14 0 -78 -69q-111 -121 -217 -291q-133 -213 -133 -322q0 -35 23 -77 q18 -35 38 -70l-223 2q-37 45 -37 180z" />
<glyph unicode="Y" horiz-adv-x="1265" d="M53 1382q0 47 58 103l221 2q-6 -12 -37 -64q-20 -33 -21 -71q0 -66 172 -260.5t236 -196.5q414 393 414 471q0 63 -115 64q-16 0 -44 -2.5t-34 -2.5q10 68 164 68q10 0 35 -2h35q106 0 106 -66q0 -61 -170 -284q-242 -324 -311 -436q-168 -268 -168 -437q0 -96 48 -152.5 t99 -115.5l-340 2q-102 51 -102 176q0 113 68 240q33 59 129 194q69 95 69 130q0 36 -133 147q-182 152 -248 223q-131 147 -131 270z" />
<glyph unicode="Z" horiz-adv-x="1236" d="M98 182q0 164 203 455q102 147 377 473q205 242 205 287t-250 45q-397 0 -514 -70v2q29 25 96 127l801 2q28 -28 28 -59q0 -33 -47 -119q-39 -70 -67 -111q-102 -137 -205 -272q-131 -178 -199 -313q-88 -178 -88 -316q0 -123 68 -163q51 -31 182 -31q47 0 141.5 4 t143.5 4q204 0 276 47q-41 -92 -80 -164q-135 0 -374 -8q-252 -8 -375 -8q-238 0 -289 53q-33 35 -33 135z" />
<glyph unicode="[" horiz-adv-x="778" d="M45 1667v21l561 -2q78 0 78 -91q0 -35 -18 -57q-2 -6 -43 -45l-70 45q16 16 16 51q0 51 -108 51h-105q-74 0 -73 -104v-1573q0 -98 73 -98h105q109 0 108 51q0 33 -6 41q-14 14 -26 27l86 26q27 -23 54.5 -45t27.5 -55q0 -90 -78 -90h-580l2 18q41 20 41 70v1694 q0 49 -45 65z" />
<glyph unicode="\" horiz-adv-x="692" d="M10 1450q0 78 64 78q59 0 102 -86q31 -61 88 -228q35 -106 111 -268q96 -207 119 -264q192 -467 192 -662q0 -37 -10 -73q-25 18 -92 135q-274 467 -385 813q0 6 -111 283q-78 199 -78 272z" />
<glyph unicode="]" horiz-adv-x="778" d="M27 -90q0 33 28.5 55.5t55.5 44.5l86 -26q-14 -12 -23.5 -23.5t-9.5 -44.5q0 -51 108 -51h103q76 0 76 98v1573q0 104 -76 104h-103q-109 0 -108 -51q0 -35 16 -51l-71 -45q-39 39 -43 45q-18 23 -19 57q0 90 78 91l561 2l2 -21q-47 -16 -47 -65v-1694q0 -49 43 -70v-18 h-580q-78 0 -77 90z" />
<glyph unicode="^" horiz-adv-x="808" d="M39 827q0 31 161.5 176.5t196.5 145.5q41 0 206 -143.5t165 -180.5q0 -33 -82 -30q-63 25 -145 77q-70 47 -138 93q-96 -68 -137 -93q-78 -51 -145 -77q-82 -2 -82 32z" />
<glyph unicode="_" horiz-adv-x="679" d="M-25 -61h730v-62h-730v62z" />
<glyph unicode="`" horiz-adv-x="663" d="M127 1313q0 82 88 82q33 0 176.5 -137.5t143.5 -170.5q0 -16 -25 -16q-12 0 -34.5 4t-33.5 6q-53 20 -170 90q-131 78 -143 107h2q-4 20 -4 35z" />
<glyph unicode="a" horiz-adv-x="1015" d="M55 258q0 147 176 295q86 72 324 211q174 102 174 143q0 72 -209 72q-123 0 -153 -6q-102 -16 -103 -80q0 -18 31 -62.5t51 -64.5l-113 2q-119 115 -118 182q47 98 135 99l418 2q141 0 213 -103q61 -88 61 -233q0 -72 -2 -214.5t-2 -211.5q0 -158 35 -217 q-129 -72 -221 -72q-6 0 -24.5 12.5t-45.5 12.5q-47 0 -142.5 -25t-146.5 -25q-135 0 -231 72q-106 80 -107 211zM264 305q0 -84 79 -158.5t163 -74.5q231 0 231 217l-4 454q-74 -16 -159 -75.5t-185 -165.5q-125 -131 -125 -197z" />
<glyph unicode="b" horiz-adv-x="1040" d="M43 35q0 -2 30.5 47t30.5 96q0 104 -3 315.5t-3 315.5q0 37 2 111v108q0 303 -43 389v2q76 25 226 72v-377q0 -41 55 -52t149 -11q38 1 68 1q59 0 82 -3q135 -12 240 -86q112 -82 112 -299q0 -152 -104 -314q-94 -141 -234 -237q-160 -113 -413 -113q-195 0 -195 35z M279 94q14 -10 32 -10q90 0 213 111q98 86 164 188q80 125 80 264q0 166 -100 260q-96 88 -267 88q-41 0 -122 -8v-893z" />
<glyph unicode="c" horiz-adv-x="974" d="M47 879q0 109 90 145q109 45 330 45q274 0 383 -12q92 -11 92 -60q0 -51 -61 -110q0 -2 -101 -86l-90 2q2 4 62 78q43 51 43 82q0 43 -269 43q-127 0 -172 -29q-61 -39 -61 -160q0 -211 141 -401q98 -131 311 -305q80 -66 101 -111q-168 16 -365 156q-170 123 -291 280 q-53 74 -98 211t-45 232z" />
<glyph unicode="d" horiz-adv-x="1081" d="M162 959.5q86 105.5 239 111.5q217 8 224 8q156 0 159 -12l-4 -2q18 37 19 180q0 150 -43 203v2q78 29 237 90v-1524q-51 -14 -93 -14h-11h-43q-307 4 -533 195q-237 202 -237 500q0 157 86 262.5zM297 702q0 -166 92 -319q88 -145 234 -242q61 -41 82 -41q82 0 92 76 q6 47 6 189q0 90 -2 271t-2 269q-18 43 -37 86q-8 8 -115 8q-188 0 -262 -51q-88 -63 -88 -246z" />
<glyph unicode="e" horiz-adv-x="999" d="M53 872q0 139 78 168q72 29 320 29q35 0 104 -2h104q150 0 194 -6t81 -49t37 -86q0 -115 -123 -248q-68 -74 -227 -203q-123 -96 -123 -123q0 -29 157 -166q170 -150 191 -186q-61 2 -160 51q-287 137 -498 428q-135 184 -135 393zM270 852q0 -86 35 -186 q74 -215 141 -215q80 0 209 167q125 162 125 248q0 96 -58 115.5t-214 19.5q-111 0 -160 -20q-78 -33 -78 -129z" />
<glyph unicode="f" horiz-adv-x="731" d="M59 981q0 18 39 45t39 41q0 233 41 315q63 125 273 125q150 0 182 -2q141 -14 141 -71q0 -29 -88 -162l-88 2q59 96 59 131q0 51 -96 51q-158 0 -205 -82q-32 -55 -32 -219v-10q0 -51 26 -68q18 -12 76 -12h68q55 0 98 -4q-43 -63 -55 -74q-25 -18 -88 -18q-14 0 -43 2 t-44 2q-37 0 -36 -49v-836q-33 -29 -103 -53q-55 -16 -110 -35q8 43 20 131q4 113 4 330v311q0 90 -2 182q-6 10 -41 14.5t-35 12.5z" />
<glyph unicode="g" horiz-adv-x="1067" d="M59 842q0 207 164 207l791 2q-25 -109 -27 -371q-2 -340 -29 -461q-47 -213 -229 -393q-174 -172 -410 -172q-72 0 -135 6l17 31q152 61 282 155q156 115 213 236q-2 31 -168 149q-209 150 -305 256q-164 178 -164 355zM297 856q0 -158 149 -373q158 -225 308 -243 q18 74 18 407q0 55 -2 164v164q-16 -2 -51 -2q-43 0 -128 4t-126 4q-168 0 -168 -125z" />
<glyph unicode="h" d="M63 -23q61 51 62 506v238q0 436 -10 582q-8 98 -43 147v2q74 31 237 55v-442q47 -10 160 -10q307 0 465 -103q135 -88 135 -338q0 -137 -92 -314t-203 -263q-45 -35 -74 -37q66 141 131 283q61 156 62 303q0 246 -158 334q-113 63 -381 63h-45v-768q0 -92 41 -131 q-14 -16 -133 -51q-127 -39 -154 -56z" />
<glyph unicode="i" horiz-adv-x="434" d="M53 -20q6 20 39 69q23 39 23 82v803q0 33 -21 59q41 23 117 47q86 27 117 41q-20 -45 -21 -88v-946q-166 -66 -254 -67zM119 1286q0 49 47 100.5t96 51.5q78 -1 78 -99q0 -57 -59 -92q-47 -28 -109 -28h-4q-49 0 -49 67z" />
<glyph unicode="j" horiz-adv-x="401" d="M-96 -322q121 180 141 220q59 117 64 254q6 252 6 417q0 391 -23 437q12 28 225 75l-12 -931q-2 -86 -72 -213q-63 -113 -137 -181q-82 -74 -192 -78zM119 1286q0 49 47 100.5t96 51.5q78 -1 78 -99q0 -57 -59 -92q-47 -28 -109 -28h-4q-49 0 -49 67z" />
<glyph unicode="k" horiz-adv-x="1048" d="M57 0q2 27 22.5 84t20.5 90q0 158 3 473.5t3 474.5q0 285 -22 348v3q96 43 217 67v-762q18 -6 47 -6q102 0 187.5 81t85.5 183q0 25 -11 45q182 0 254 6q-8 -96 -53 -153q-20 -27 -82 -70q-43 -29 -43 -59q0 -4 41 -64q119 -174 180 -309q90 -196 90 -350q0 -16 -4 -143 q-49 31 -153 231q-154 301 -183 348q-109 180 -180 180q-63 0 -115.5 -44t-70.5 -105q-8 -31 -8 -281q0 -133 26 -176q-18 -8 -252 -92z" />
<glyph unicode="l" horiz-adv-x="450" d="M57 16q12 29 36 105t24 100l2 602q0 340 -6 492q-2 23 -7.5 74t-5.5 79q143 55 230 76q-29 -106 -29 -342q0 -166 2 -495v-494q0 -90 33 -125q-49 -39 -279 -72z" />
<glyph unicode="m" horiz-adv-x="1361" d="M92 -18q25 82 25 135q0 6 -2 19.5t-2 17.5q-2 45 -2 135q0 100 4 298.5t4 299.5q0 25 -25 135q35 0 101.5 29.5t103.5 29.5q33 0 33 -30q0 -8 14 -9q25 0 80 18.5t86 18.5q74 0 144.5 -36.5t86.5 -38.5q137 73 220 73h2q154 0 267.5 -118.5t113.5 -274.5 q0 -176 -119 -405q-129 -248 -281 -299q12 74 64 163q145 250 145 457q0 129 -70 250q-80 139 -198 139q-37 0 -63.5 -25.5t-26.5 -62.5v1q3 0 29 -74q30 -83 30 -228q0 -160 -76 -346q-92 -223 -219 -254q16 55 49 168q55 190 56 385q0 154 -52 281q-68 170 -196 170 q-39 0 -61.5 -25t-26.5 -66q-2 -16 -4 -141q-4 -141 -4 -303q0 -371 32 -395q-82 -25 -262 -92z" />
<glyph unicode="n" horiz-adv-x="1097" d="M61 1081l312 2q4 0 176 -12q260 -20 414 -143q108 -88 108 -262q0 -152 -115 -379q-125 -244 -254 -287q10 47 39 113q25 53 50 108q88 215 88 397q0 195 -136 306q-127 102 -325 102q-70 0 -88 -6q-29 -10 -35 -131q-18 -301 -19 -545q0 -125 23 -266q-33 -27 -111 -51 q-59 -18 -120 -35q16 90 16 139l4 821q0 43 -27 129z" />
<glyph unicode="o" d="M70 690q0 141 59 240q72 119 205 119q-2 0 457 2q68 0 145 -47q149 -91 149 -302q0 -229 -141 -450q-158 -252 -373 -252q-117 0 -233 96q-94 78 -166 199q-102 168 -102 395zM254 678q0 -322 149 -494q84 -96 152 -96q129 0 238 238q94 204 94 356q0 176 -64.5 239.5 t-240.5 63.5q-170 0 -246 -67q-82 -72 -82 -240z" />
<glyph unicode="p" horiz-adv-x="1021" d="M51 -365q49 127 49 230q0 76 -2 227v225v310q2 207 2 309q0 84 -32 127v2l243 2q430 0 558 -43t128 -270q0 -348 -344 -553q-31 -18 -159 -76q-106 -47 -148.5 -83t-42.5 -114q0 -172 23 -198q-180 -68 -275 -95zM305 162q172 12 328 194q155 177 155 351q0 154 -100 237 q-92 76 -250 76q-59 0 -129 -12v2z" />
<glyph unicode="q" horiz-adv-x="1032" d="M131 942q70 106 174 107l694 2q-47 -61 -47 -768v-371q0 -209 31 -246q-49 -4 -123 -24q-96 -31 -119 -35q6 98 7 219q0 133 -23 174q-45 33 -131 78q-274 145 -416 321q-108 132 -108 334q0 115 61 209zM276 723q0 -178 74 -301q57 -92 150 -178q115 -102 198 -103 q25 0 50 6v834q-18 -6 -50 -6q-25 0 -76 4t-75 4q-270 0 -271 -260z" />
<glyph unicode="r" horiz-adv-x="819" d="M80 1004q137 63 162 63q41 0 53 -16q4 -6 16 -52q72 29 145.5 55.5t153.5 26.5h3q190 0 190 -118q0 -43 -39 -82t-82 -39q-39 0 -39 18q0 16 9.5 47t9.5 47q0 53 -103 54q-80 0 -146.5 -45t-93.5 -119q-20 -53 -20 -363v-180q0 -203 23 -219q-18 -20 -107.5 -49 t-128.5 -33q33 104 41 270v279q0 354 -47 455z" />
<glyph unicode="s" horiz-adv-x="763" d="M43 -109q18 31 61 80q240 287 240 439q0 88 -150.5 262t-150.5 256q0 121 104 121l553 2q4 0 19 -9q26 -16 26 -55q0 -61 -86 -110q-39 -23 -104 -23l-4 2q0 8 23.5 38t23.5 48q0 29 -29 37q-39 12 -145 12q-109 0 -123 -2q-80 -10 -80 -61q0 -41 86 -115 q123 -106 160 -149q84 -106 84 -226q0 -139 -183.5 -334.5t-324.5 -212.5z" />
<glyph unicode="t" horiz-adv-x="645" d="M20 1016q55 14 181 160q119 139 145 139q2 -70 8 -211q2 -16 13 -39q122 -4 282 -12q-41 -59 -84 -68q-61 -2 -121 -2q-96 -6 -96 -37v-592q0 -94 58 -194q16 -27 118 -166q51 -70 62 -113q-164 29 -283 164q-106 123 -145 297q-16 78 -17 98v543q-16 10 -63 16.5 t-58 16.5z" />
<glyph unicode="u" horiz-adv-x="1150" d="M188.5 791.5q118.5 195.5 260.5 271.5q-31 -68 -89 -209q-37 -92 -73 -184q-41 -115 -41 -191q0 -233 149.5 -328.5t333.5 -95.5q102 0 102 37v514q0 227 -10 289q0 2 -47 92q29 18 125 53q125 47 139 52q-10 -25 -10 -142l-2 -489q0 -418 51 -461q-86 0 -260 -4t-260 -4 q-104 0 -166 12q-321 59 -321 430q0 162 118.5 357.5z" />
<glyph unicode="v" horiz-adv-x="991" d="M76 16q2 16 20.5 43t22.5 43q6 31 6 123q0 303 -10 568q0 27 -2 79q-8 66 -37 129v3q88 27 262 88q-14 -25 -14 -420q0 -68 6 -527q20 -8 43 -8q109 0 227 199q98 162 176 405q70 221 70 330q0 2 -2 10q55 -29 88 -104q29 -67 29 -139q0 -317 -209 -570 q-223 -268 -533 -268h-31q-74 0 -112 16z" />
<glyph unicode="w" horiz-adv-x="1343" d="M53 418q0 197 94 383q102 205 269 278v2q8 2 18 2q18 0 19 -10q0 -10 -43 -78q-86 -135 -129 -250q-35 -98 -35 -217q0 -156 51 -272q70 -156 205 -156q29 0 50 27t21 57q0 16 -22.5 113.5t-22.5 196.5q0 238 113 421q27 43 74 93q59 59 94 59q10 0 16 2q-8 -78 -65 -272 q-51 -170 -51 -275q0 -150 61 -278q76 -162 209 -162q27 0 47 29q43 55 43 436v79v79q0 180 -6 225q-4 31 -37 69q84 27 256 70q-6 -43 -14 -131q-10 -135 -11 -500v-132v-132q0 -82 33 -170q-231 -10 -272 -10q-139 0 -209 18q-14 4 -78.5 29t-75.5 25q-12 0 -90 -31 t-129 -31q-90 0 -192 57q-190 106 -191 357z" />
<glyph unicode="x" horiz-adv-x="1163" d="M55 106q0 84 101 203q45 51 188 187q102 96 102 122q0 37 -77 91q-115 82 -142 106q-75 73 -75 158q0 49 59 90l133 2q0 -92 4 -123q6 -51 84 -121q59 -51 121 -100q66 57 131 115q76 72 100 139q-63 14 -131 14q35 76 125 76q152 0 152 -74q0 -45 -281 -327 q121 -123 238 -220q248 -208 248 -358q0 -59 -45 -86h-207q0 336 -334 528q-82 -55 -168 -170q-98 -131 -98 -211q0 -29 19.5 -70.5t21.5 -62.5l-222 2q-47 57 -47 90z" />
<glyph unicode="y" horiz-adv-x="1064" d="M70 963q0 118 127 118h2q25 0 71.5 -6t71.5 -6q0 -25 -18.5 -68t-18.5 -67q0 -86 101 -209q82 -96 176 -164q121 125 184 201q129 152 143 215q-133 31 -202 31q31 63 133 63q198 0 198 -80q0 -20 -145 -211q-180 -233 -272 -395q-145 -260 -146 -451q0 -104 31 -167 q39 -72 76 -144q-53 -8 -84 -8q-76 0 -147.5 48t-96.5 118q-14 45 -14 108q0 113 103 310.5t103 208.5q0 14 -98 118q-123 131 -180 213q-98 135 -98 224z" />
<glyph unicode="z" horiz-adv-x="950" d="M43 121q0 158 186 377q53 63 308 311l84 84q53 61 63 96q-45 0 -134 3t-134 3q-164 0 -299 -18v2q51 86 100 86l664 2v-16q0 -43 -90 -144q-215 -242 -291 -340q-195 -252 -195 -372q0 -80 101 -107q51 -12 165 -12q59 0 154 10q123 14 156 16q-23 -55 -60 -102l-676 2 q-102 0 -102 119z" />
<glyph unicode="{" horiz-adv-x="755" d="M-16 39q27 4 98 10q104 6 223 94q129 96 129 195q0 88 -198.5 298t-198.5 292q0 121 104 121l553 2q4 0 19 -9q26 -16 26 -55q0 -61 -86 -110q-39 -23 -104 -23l-6 2q2 8 25.5 38t23.5 48q0 29 -29 37q-39 12 -145 12q-109 0 -123 -2q-80 -10 -80 -61q0 -41 107 -133 q152 -133 196 -187q106 -125 107 -243q0 -141 -187 -261q-170 -109 -321 -108q-86 0 -133 43z" />
<glyph unicode="|" horiz-adv-x="651" d="M59 981q0 18 39 45t39 41q0 233 41 315q63 125 273 125q150 0 182 -4q141 -12 141 -69q0 -29 -88 -162l-70 24q41 66 41 109q0 51 -96 51q-135 0 -185 -55t-50 -193v-1120q-33 -29 -103 -53q-55 -16 -110 -35q8 43 20 131q4 106 4 330v305q0 94 -2 188q-6 10 -41 14.5 t-35 12.5z" />
<glyph unicode="}" horiz-adv-x="1161" d="M20 1016q86 14 150 88q18 20 90 133q45 70 86 78q10 -78 10 -203q0 -33 7.5 -44t39.5 -11q47 0 142.5 3t142.5 3q418 0 418 -143q0 -39 -137 -172q-174 -166 -178 -170q0 -18 86 -89q113 -90 159 -141q84 -94 84 -174q0 -197 -180 -342q-123 -96 -358 -186 q-76 -29 -138 -31q39 66 111 102q332 168 332 363q0 125 -117 250q-45 49 -217 184q100 90 201 182q152 141 151 193q0 96 -381 96q-176 0 -176 -39v-592q0 -100 51 -188q16 -25 107 -139q63 -80 80 -146q-164 29 -281 164q-109 125 -147 297q-10 53 -13 100l-4 541 q-14 8 -65 8q-41 0 -56 25z" />
<glyph unicode="~" horiz-adv-x="851" d="M72 754q25 94 49 190q43 106 145 107q78 0 165 -66.5t151 -66.5q104 0 139 106q22 -66 22 -84q0 -66 -65.5 -126t-130.5 -60q-70 0 -162 66.5t-141 66.5q-25 0 -70 -62q-55 -76 -68 -84z" />
<glyph unicode="&#xa1;" horiz-adv-x="532" d="M115 1493q0 57 73 57q43 0 99 -22q67 -29 67 -64q0 -39 -22.5 -66.5t-59.5 -27.5q-92 0 -133 62q-25 37 -24 61zM129 422q0 463 68 715q10 39 39 102q88 -113 116 -393q13 -137 13 -428q0 -195 -20.5 -301.5t-102.5 -106.5q-113 0 -113 412z" />
<glyph unicode="&#xa2;" horiz-adv-x="974" d="M72 881q0 104 84 139q96 41 274 43q0 43 6 131q6 72 41 72q68 0 68 -203q174 0 276 -12q84 -11 84 -58t-55 -104l-94 -82l-84 2q2 4 57 74q39 47 39 78q0 39 -223 40v-159q2 -100 2 -158q0 -90 -17 -309q94 -68 226 -109q92 -31 125 -63q-55 -16 -121 -17q-115 0 -242 50 q-6 -72 -12 -115q-14 -94 -27 -109q-41 86 -53 267q-143 76 -219 180q-53 70 -94 201t-41 221zM301 821q0 -203 119 -346q0 340 6 522q-125 -16 -125 -176z" />
<glyph unicode="&#xa3;" horiz-adv-x="1214" d="M16 2q14 43 31 86q10 14 80 16h33q10 66 39 195q16 59 32 121q18 70 19 123h-17q-45 0 -88 22q-51 25 -51 68q0 94 170 104q-25 92 -49 185q-29 109 -29 188q0 242 77 320.5t317 78.5q244 0 243 -82q0 -23 -88 -155l-88 2q59 92 60 131q0 49 -93 49q-137 0 -188 -54 t-51 -192q0 -301 67 -477q414 -2 465 -31q16 -10 17 -22q0 -47 -115 -74q-66 -16 -227 -33q-141 -16 -168 -28q0 -74 -17.5 -224.5t-17.5 -226.5q33 0 105.5 -2t107.5 -2q336 0 352.5 12.5t16.5 34.5q0 47 -33 109q-27 49 -56 100l121 2q41 -61 82 -125q55 -88 55 -129 q0 -92 -161 -92z" />
<glyph unicode="&#xa4;" horiz-adv-x="1161" d="M74 238l155 157q-84 129 -84 258q0 123 84 258l-155 156l92 94l158 -157q133 84 256 83q127 0 258 -83l157 157l92 -94l-155 -156q84 -131 84 -258q0 -131 -84 -258l155 -157l-92 -93l-157 156q-78 -47 -121 -63q-57 -20 -137 -21q-123 0 -256 84l-158 -156zM276 653 q0 -127 88.5 -215t215.5 -88q129 0 217 87t88 216q0 127 -89 215t-216 88q-125 0 -214.5 -89t-89.5 -214z" />
<glyph unicode="&#xa5;" horiz-adv-x="1294" d="M80 1382q0 45 57 103l221 2q-4 -14 -34 -64q-23 -33 -23 -71q0 -63 173 -259t235 -198q414 393 413 471q0 63 -110 64q-18 0 -46 -2.5t-36 -2.5q12 68 166 68q10 0 34 -2h33q107 0 107 -66q0 -55 -137 -245q-92 -121 -183 -242q-98 -133 -162 -236q190 -2 191 -69 q0 -23 -30.5 -43.5t-55.5 -20.5q-41 0 -176 11q-18 -39 -35 -74q227 -27 227 -74q0 -18 -79.5 -25.5t-188.5 -9.5q-20 -70 -20 -129q0 -96 49 -152.5t98 -115.5l-340 2q-102 51 -102 176q0 102 57 215q-74 0 -100 6q-61 14 -62 66q0 68 238 57q18 25 53 72q-78 8 -174 24 q-49 27 -49 46q0 8 12 16q25 12 279 20q12 25 12 43q0 35 -131 146q-182 152 -248 223q-133 147 -133 270z" />
<glyph unicode="&#xa6;" horiz-adv-x="532" d="M162 502q0 420 10 639q2 98 18 284q12 88 68 88q119 0 119 -276q0 -78 2 -231.5t2 -231.5q0 -141 -35 -450q-41 -369 -82 -404q-102 154 -102 582z" />
<glyph unicode="&#xa7;" horiz-adv-x="976" d="M39 838q0 61 121 168q88 82 176 135q-84 59 -148 131q-86 98 -86 170q0 78 97 78l622 -2q27 0 52.5 -27.5t25.5 -54.5q0 -63 -68 -97q-55 -27 -124 -26q-2 0 -9 2q2 12 18.5 37.5t16.5 40.5q0 68 -276 67q-133 0 -133 -51q0 -47 147 -147q209 -143 274 -203 q147 -139 148 -281q0 -82 -72 -174q-57 -76 -139 -133q66 -53 133 -104q78 -72 78 -142q0 -59 -66 -119q-55 -49 -122.5 -74.5t-180.5 -25.5q-266 0 -385 184l107 -24q14 -4 123 -39q74 -25 127 -25h26q51 2 103 4q68 4 90 27q14 12 16 41q2 16 2 27q0 31 -180 149 q-244 160 -334 234q-180 150 -180 254zM221 870q0 -12 2 -16q4 -18 96 -98q74 -66 115 -97q63 -39 182 -129q129 119 129 168q0 100 -137 222q-111 84 -221 167q-166 -117 -166 -217z" />
<glyph unicode="&#xa8;" horiz-adv-x="1024" d="M186 1286q0 49 47.5 100.5t96.5 51.5q78 -1 78 -99q0 -57 -60 -92q-49 -29 -112 -28q-49 0 -50 67zM549 1286q0 49 47 100.5t96 51.5q78 -1 78 -99q0 -57 -59 -92q-49 -29 -113 -28q-49 0 -49 67z" />
<glyph unicode="&#xa9;" horiz-adv-x="1529" d="M66 719q0 291 203.5 495.5t494.5 204.5q293 0 496.5 -202.5t203.5 -497.5q0 -291 -204.5 -495t-495.5 -204q-289 0 -493.5 206t-204.5 493zM172 719q0 -246 173 -419t419 -173q248 0 421 172t173 420q0 250 -173 423t-421 173t-420 -174t-172 -422zM389 729 q0 195 108.5 317.5t301.5 122.5q133 0 250 -43v-118q-121 57 -228 57q-143 0 -219 -100q-68 -88 -67 -238q0 -342 299 -342q96 0 215 49v-119q-102 -43 -240 -43q-264 0 -367 220q-53 111 -53 237z" />
<glyph unicode="&#xaa;" horiz-adv-x="849" d="M76 995q0 98 121 195q66 55 223 139q121 66 121 88q0 37 -135 37q-166 0 -166 -47q0 -27 73 -92l-108 2q-88 80 -88 131q37 72 102 72h289q98 0 149.5 -63.5t51.5 -164.5q0 -47 -2 -142t-2 -142q-1 -95 28 -140q-100 -51 -166 -51q-8 0 -21.5 7t-27.5 7q-33 0 -99.5 -15 t-101.5 -15q-94 0 -163 49q-78 53 -78 145zM240 1026q0 -53 52 -98t105 -45q150 0 150 131l-2 284q-45 -12 -98.5 -46.5t-122.5 -102.5q-84 -84 -84 -123z" />
<glyph unicode="&#xab;" horiz-adv-x="1136" d="M55 655q0 61 74 133q63 61 129 91l350 149l15 -45q-113 -49 -265 -143q-39 -25 -75 -70q-43 -53 -43 -88q0 -10 2 -18q47 -98 165 -198.5t224 -139.5l-19 -103q-201 51 -348 144q-209 129 -209 288zM461 664q0 57 76 118q61 49 127 72l346 113l16 -35q-104 -35 -266 -119 q-37 -18 -68 -53q-35 -43 -35 -78q0 -74 156 -166q125 -75 225 -104l-18 -80q-211 45 -338 110q-221 117 -221 222z" />
<glyph unicode="&#xac;" horiz-adv-x="614" />
<glyph unicode="&#xad;" horiz-adv-x="663" d="M61 791q0 96 158 96q178 0 281 -6q135 -7 170 -50q-94 -74 -178 -92q-203 -43 -351 -43q-35 0 -57.5 30t-22.5 65z" />
<glyph unicode="&#xae;" horiz-adv-x="1529" d="M66 719q0 291 203.5 495.5t494.5 204.5q293 0 496.5 -202.5t203.5 -497.5q0 -291 -204.5 -495t-495.5 -204q-289 0 -493.5 206t-204.5 493zM172 719q0 -246 173 -419t419 -173q248 0 421 172t173 420q0 250 -173 423t-421 173t-420 -174t-172 -422zM498 287v862h274 q115 0 186 -55q76 -61 76 -176q0 -172 -170 -244q45 -29 97 -123l143 -264h-156l-145 278q-45 82 -68 82h-102v-360h-135zM633 752h94q168 -1 168 159q0 133 -158 133h-104v-292z" />
<glyph unicode="&#xaf;" horiz-adv-x="813" d="M61 827q0 45 43 84q27 2 60 2q25 0 75 -2t74 -2q160 0 299 -12q-4 0 70 0q82 0 82 -18q0 -2 -2 -5q-10 -27 -64.5 -67.5t-85.5 -48.5q-104 -29 -331 -29h-76q-49 2 -74 2q-33 0 -51.5 31t-18.5 65z" />
<glyph unicode="&#xb0;" horiz-adv-x="741" d="M135 1245q0 76 86 137q80 55 160 56q76 0 149 -49q99 -68 99 -136q0 -102 -75 -194t-175 -92q-109 0 -195 118q-49 68 -49 160zM254 1268q0 -74 27 -150q33 -100 90 -100q53 0 86 88q24 67 24 135q0 115 -133 115q-94 0 -94 -88z" />
<glyph unicode="&#xb1;" horiz-adv-x="1024" />
<glyph unicode="&#xb2;" horiz-adv-x="759" d="M23 657q39 80 104 148q211 223 227 242q137 168 138 284q0 150 -166 150q-174 0 -174 -115q0 -16 4 -50t4 -52q-137 47 -137 141q0 100 104 127q84 20 209 20q141 0 231 -30q104 -37 105 -183q0 -96 -107 -241q-61 -80 -200 -226q-106 -113 -107 -131q0 -6 53 -6h283 q18 0 29 13q-12 31 -39 88q23 10 37 10q33 0 52 -9.5t43.5 -52t24.5 -67.5q0 -61 -59 -62h-82z" />
<glyph unicode="&#xb3;" horiz-adv-x="700" d="M16 881q0 98 131 151q8 -47 8.5 -132t52.5 -131t136 -46q61 0 112.5 48t51.5 110q0 182 -223 307q180 188 180 244q0 39 -186 38q-94 0 -95 -32q0 -6 66 -131l-103 2q-27 20 -58.5 72.5t-31.5 82.5q0 51 113 76q80 18 164 19q82 0 162 -23q113 -31 112 -90 q0 -37 -131 -207q33 -31 96 -92q107 -115 107 -250q0 -125 -86 -186q-102 -76 -242 -76q-131 0 -223 57q-113 66 -113 189z" />
<glyph unicode="&#xb4;" horiz-adv-x="663" d="M158 1087q0 33 143 170.5t176 137.5q88 0 88 -82q0 -14 -4 -35h2q-12 -27 -140 -100.5t-171 -87.5q-55 -18 -74 -19q-20 0 -20 16z" />
<glyph unicode="&#xb5;" horiz-adv-x="1019" d="M43 430q0 51 12 111q25 111 111 282q102 201 174 230q-10 -72 -74 -316q-49 -193 -49 -319q0 -119 16 -158q23 -53 114 -111.5t120 -70.5q63 -29 141 -29q43 0 53.5 4t49.5 33v526q0 190 -11 256q-2 16 -22.5 51t-20.5 50q0 14 117 55q72 27 146 51q-12 -29 -13 -157 l-2 -465q0 -418 51 -459q-72 0 -218 -3t-218 -3q-125 0 -182 16q-14 4 -55 25.5t-58 21.5q-37 0 -37 -246q0 -106 2 -219v-35q0 -53 -8 -53q4 0 -18 8q-35 10 -42 14.5t-26 33.5q-53 84 -53 876z" />
<glyph unicode="&#xb6;" horiz-adv-x="933" d="M47 1040q0 158 99.5 251t256.5 93l525 2q-51 -113 -197 -114v-1266q-92 72 -92 184v1082h-188v-1266q-94 61 -95 184v510q-141 14 -225 106.5t-84 233.5z" />
<glyph unicode="&#xb7;" horiz-adv-x="434" d="M109 647q0 80 73 127q45 31 72 31q78 0 78 -98q0 -57 -60 -93q-51 -29 -112 -28q-51 0 -51 61z" />
<glyph unicode="&#xb8;" horiz-adv-x="565" d="M227 -86q0 123 144 162q-20 -61 -21 -99q0 -56 76 -81q2 -53 -54.5 -132t-107.5 -79q-10 0 -20 4q53 80 53 141q0 14 -4 27h-19q-33 0 -40 10t-7 47z" />
<glyph unicode="&#xb9;" horiz-adv-x="313" d="M55 616q23 111 23 287q0 88 -2 265.5t-2 267.5q0 18 -13 45v18q90 35 172 51v-866q-90 -57 -178 -68z" />
<glyph unicode="&#xba;" horiz-adv-x="770" d="M27 1233q0 94 45 158q53 68 143 67q51 0 152 2h151q88 0 148.5 -63.5t60.5 -151.5q0 -150 -100 -284q-109 -143 -254 -144q-154 0 -277 178q-70 102 -69 238zM178 1229q0 -182 96 -279q49 -53 88 -53q76 0 144 131q59 117 59 201q0 104 -47 137q-37 27 -139 27 q-98 0 -146 -33q-55 -37 -55 -131z" />
<glyph unicode="&#xbb;" horiz-adv-x="1136" d="M86 797l14 82q225 -51 328 -103q74 -37 141 -88q94 -70 103 -123v-4q0 -49 -37 -95t-84 -65l-418 -157l-16 35q115 43 258 120q35 18 69.5 63.5t34.5 80.5q0 76 -162 162q-123 66 -231 92zM489 897l15 104q162 -37 344 -139q229 -131 227 -254v-6q-2 -78 -86 -160 q-70 -68 -155 -108l-297 -137l-17 45q154 72 262 145q35 25 63.5 70t28.5 86q0 104 -143 219q-121 96 -242 135z" />
<glyph unicode="&#xbc;" horiz-adv-x="1300" d="M168 717q23 111 22 221q0 86 -2 258t-2 258q0 16 -12 45v19q51 20 160 51v-785q-92 -59 -166 -67zM229 41q0 182 193 659q70 176 215 527q33 80 102 231q45 88 103 88q63 0 63 -78t-106 -338q-150 -367 -267 -624q-223 -500 -292 -541q-10 37 -11 76zM639 342 q0 143 103.5 320.5t230.5 232.5q37 16 96 16q76 0 148 -12q-10 -25 -23 -68q-4 -33 -4 -120q0 -154 6 -357l37 -35q-14 -16 -41 -47v-43q-2 -29 -2 -45q0 -84 24 -127q-27 -18 -182 -63v95.5v94.5q0 66 -2 90h-4q-18 -2 -49 0q-37 2 -49 2h-109q-72 -2 -108 -2q-72 0 -72 68 zM807 385q0 -35 31 -35h192q0 61 2 223v226q0 31 -16 30q-61 0 -154 -194q-55 -117 -55 -250z" />
<glyph unicode="&#xbd;" horiz-adv-x="1417" d="M168 717q23 111 22 221q0 86 -2 258t-2 258q0 16 -12 45v19q51 20 160 51v-785q-92 -59 -166 -67zM229 41q0 182 193 659q70 176 215 527q33 80 102 231q45 88 103 88q63 0 63 -78t-106 -338q-150 -367 -267 -624q-223 -500 -292 -541q-10 37 -11 76zM680 719 q0 98 100 121q82 20 203 20q137 0 223 -29q104 -37 105 -174q0 -92 -105 -229q-59 -78 -194 -217q-102 -106 -103 -123q0 -6 52 -6h274q16 0 27 12q-12 27 -37 84q20 8 35 8q31 0 50 -8t42.5 -49t23.5 -66q0 -59 -57 -59h-78l-559 2q37 76 100 141q205 213 219 230 q133 162 134 272q0 143 -160 144q-168 0 -168 -111q0 -16 4 -48t4 -48q-135 43 -135 133z" />
<glyph unicode="&#xbe;" horiz-adv-x="1595" d="M37 918q0 92 127 145q8 -47 8 -127t50 -123t132 -43q57 0 107.5 45t50.5 105q0 170 -217 288q174 178 174 228q0 39 -178 39q-92 0 -92 -33q0 -4 63 -123l-98 2q-27 18 -57.5 67.5t-30.5 77.5q0 49 110 74q76 16 156 16t158 -20q109 -29 108 -86q0 -35 -125 -195 q31 -29 90 -86q105 -108 105 -235q0 -121 -100 -189q-86 -57 -216 -57q-127 0 -215 51q-111 63 -110 179zM516 41q0 182 193 659q70 176 215 527q33 80 102 231q45 88 102 88q64 0 64 -78t-107 -338q-150 -367 -266 -624q-223 -500 -293 -541q-10 37 -10 76zM516 41 q0 -39 10 -76q111 66 559 1165q107 260 107 338t-64 78q-57 0 -102 -88q-33 -63 -102 -229q-6 -12 -215 -529q-193 -477 -193 -659zM516 41q0 182 193 659q70 176 215 527q33 80 102 231q45 88 102 88q64 0 64 -78t-107 -338q-150 -367 -266 -624q-223 -500 -293 -541 q-10 37 -10 76zM926 342q0 143 103.5 320.5t230.5 232.5q37 16 96 16q76 0 147 -12q-10 -25 -22 -68q-4 -33 -4 -120q0 -154 6 -357l37 -35q-14 -16 -41 -47v-43q-2 -29 -2 -45q0 -84 24 -127q-27 -18 -182 -63v95.5v94.5q0 66 -2 90h-4q-18 -2 -49 0q-37 2 -50 2h-108 q-72 -2 -109 -2q-72 0 -71 68zM926 342q0 -68 71 -68q37 0 109 2h108q8 0 52 -2q37 -2 51 0q2 -12 2 -221v-59q47 14 94 26q59 18 88 37q-25 43 -24 127q0 16 2 45v43q14 14 41 47l-37 35q-6 203 -6 357q0 86 4 120q8 23 22 68q-72 12 -147 12q-59 0 -96 -16 q-127 -55 -230.5 -232.5t-103.5 -320.5zM926 342q0 143 103.5 320.5t230.5 232.5q37 16 96 16q76 0 147 -12q-10 -25 -22 -68q-4 -33 -4 -120q0 -154 6 -357l37 -35q-14 -16 -41 -47v-43q-2 -29 -2 -45q0 -84 24 -127q-27 -18 -182 -63v95.5v94.5q0 66 -2 90h-4 q-18 -2 -49 0q-37 2 -50 2h-108q-72 -2 -109 -2q-72 0 -71 68zM1094 385q0 -35 30 -35h193q0 61 2 223v226q0 31 -16 30q-61 0 -154 -194q-55 -117 -55 -250zM1094 385q0 133 55 250q92 195 154 194q16 1 16 -30v-226q-2 -162 -2 -223h-193q-31 0 -30 35zM1094 385 q0 -35 30 -35h193q0 61 2 223v226q0 31 -16 30q-61 0 -154 -194q-55 -117 -55 -250z" />
<glyph unicode="&#xbf;" horiz-adv-x="1105" d="M61 213q0 94 140 283q127 166 256 329q137 190 137 289q0 82 -39 168q102 -14 147 -53q53 -45 54 -144q0 -92 -234.5 -432t-234.5 -413q0 -115 252 -115q293 0 323 27q18 16 19 45q0 25 -74 163l102 -2q37 -25 78 -95t41 -109q0 -43 -31 -66q-84 -61 -512 -61 q-305 0 -364.5 51t-59.5 135zM512 1436q27 121 168 120q53 0 53 -47q0 -68 -45 -107.5t-115 -39.5q-43 0 -61 74z" />
<glyph unicode="&#xc0;" horiz-adv-x="1236" d="M51 0q49 45 49 381q0 59 -2 177t-2 177q0 190 117 369q106 160 281 272q135 86 323 115q115 16 344 16v-1448q-74 -37 -217 -73q18 283 19 567q-6 4 -21 4q-78 0 -325.5 -75.5t-309.5 -121.5v-122q0 -100 12 -162q-90 -27 -268 -76zM297 596q0 -104 8 -160q104 45 270 94 q252 78 275 84q47 16 102 43q0 47 9 320q4 194 4 319q0 135 -97 136q-135 0 -276 -127q-111 -102 -193 -248q-102 -182 -102 -461zM414 1784q0 82 88 82q33 0 176.5 -137.5t143.5 -170.5q0 -16 -25 -16q-12 0 -34.5 4t-33.5 6q-53 20 -170 90q-131 78 -143 107h2 q-4 20 -4 35z" />
<glyph unicode="&#xc1;" horiz-adv-x="1236" d="M51 0q49 45 49 381q0 59 -2 177t-2 177q0 190 117 369q106 160 281 272q135 86 323 115q115 16 344 16v-1448q-74 -37 -217 -73q18 283 19 567q-6 4 -21 4q-78 0 -325.5 -75.5t-309.5 -121.5v-122q0 -100 12 -162q-90 -27 -268 -76zM297 596q0 -104 8 -160q104 45 270 94 q252 78 275 84q47 16 102 43q0 47 9 320q4 194 4 319q0 135 -97 136q-135 0 -276 -127q-111 -102 -193 -248q-102 -182 -102 -461zM547 1517q0 33 143 170.5t176 137.5q88 0 88 -82q0 -14 -4 -35h2q-12 -27 -140 -100.5t-171 -87.5q-55 -18 -74 -19q-20 0 -20 16z" />
<glyph unicode="&#xc2;" horiz-adv-x="1236" d="M51 0q49 45 49 381q0 59 -2 177t-2 177q0 190 117 369q106 160 281 272q135 86 323 115q115 16 344 16v-1448q-74 -37 -217 -73q18 283 19 567q-6 4 -21 4q-78 0 -325.5 -75.5t-309.5 -121.5v-122q0 -100 12 -162q-90 -27 -268 -76zM297 596q0 -104 8 -160q104 45 270 94 q252 78 275 84q47 16 102 43q0 47 9 320q4 194 4 319q0 135 -97 136q-135 0 -276 -127q-111 -102 -193 -248q-102 -182 -102 -461zM463 1587q0 27 129 155t156 128q33 0 164 -127t131 -156t-66 -27q-35 14 -225 138q-74 -53 -106 -74q-63 -41 -117 -61q-66 -2 -66 24z" />
<glyph unicode="&#xc3;" horiz-adv-x="1236" d="M51 0q49 45 49 381q0 59 -2 177t-2 177q0 190 117 369q106 160 281 272q135 86 323 115q115 16 344 16v-1448q-74 -37 -217 -73q18 283 19 567q-6 4 -21 4q-78 0 -325.5 -75.5t-309.5 -121.5v-122q0 -100 12 -162q-90 -27 -268 -76zM297 596q0 -104 8 -160q104 45 270 94 q252 78 275 84q47 16 102 43q0 47 9 320q4 194 4 319q0 135 -97 136q-135 0 -276 -127q-111 -102 -193 -248q-102 -182 -102 -461zM422 1547q23 82 43 163q37 90 125 91q68 0 142.5 -56.5t127.5 -56.5q92 0 119 90q21 -58 21 -72q0 -55 -56.5 -106t-111.5 -51q-59 0 -139 56 t-123 56q-20 0 -60 -53q-45 -63 -57 -70z" />
<glyph unicode="&#xc4;" horiz-adv-x="1236" d="M51 0q49 45 49 381q0 59 -2 177t-2 177q0 190 117 369q106 160 281 272q135 86 323 115q115 16 344 16v-1448q-74 -37 -217 -73q18 283 19 567q-6 4 -21 4q-78 0 -325.5 -75.5t-309.5 -121.5v-122q0 -100 12 -162q-90 -27 -268 -76zM297 596q0 -104 8 -160q104 45 270 94 q252 78 275 84q47 16 102 43q0 47 9 320q4 194 4 319q0 135 -97 136q-135 0 -276 -127q-111 -102 -193 -248q-102 -182 -102 -461zM432 1624q0 49 47.5 100.5t96.5 51.5q78 -1 78 -99q0 -57 -60 -92q-49 -29 -112 -28q-49 0 -50 67zM795 1624q0 49 47 100.5t96 51.5 q78 -1 78 -99q0 -57 -59 -92q-49 -29 -113 -28q-49 0 -49 67z" />
<glyph unicode="&#xc5;" horiz-adv-x="1236" d="M51 0q49 45 49 381q0 59 -2 177t-2 177q0 190 117 369q106 160 281 272q135 86 323 115q115 16 344 16v-1448q-74 -37 -217 -73q18 283 19 567q-6 4 -21 4q-78 0 -325.5 -75.5t-309.5 -121.5v-122q0 -100 12 -162q-90 -27 -268 -76zM297 596q0 -104 8 -160q104 45 270 94 q252 78 275 84q47 16 102 43q0 47 9 320q4 194 4 319q0 135 -97 136q-135 0 -276 -127q-111 -102 -193 -248q-102 -182 -102 -461zM498 1700q0 61 69 108q63 45 129 45q61 0 119 -38q80 -54 80 -109q0 -82 -59 -152q-61 -76 -142 -75q-86 0 -155 94q-41 55 -41 127z M594 1718q0 -57 20 -119q27 -80 74 -79q43 0 68 69q20 56 20 107q0 94 -106 94q-76 0 -76 -72z" />
<glyph unicode="&#xc6;" horiz-adv-x="1888" d="M-12 0q49 41 49 381q0 59 -2 175t-2 173q0 195 117 373q104 158 280 274q162 104 424 125v2q39 0 121 2t123 2v-4h704q78 0 78 -92q0 -31 -70 -100q-47 -45 -96 -90l-119 2q39 33 80 82q53 61 54 94q0 43 -56 53q-63 10 -200 10q-51 0 -155 -3t-155 -3q-66 0 -65 -37 v-262q0 -8 10 -24q20 -6 242 -7q174 0 266 -28q-88 -70 -111 -78q-74 27 -317 27q-80 0 -90 -17v-332q0 -35 39 -149q74 -207 325 -395q66 -43 131 -88q82 -59 115 -103h-8q-129 0 -326 137q-160 109 -276 238v-279q-72 -35 -217 -73q18 285 18 567q-6 4 -20 4 q-74 0 -326 -78t-309 -119v-114q0 -111 12 -170q-90 -27 -268 -76zM233 557q0 -66 9 -121q104 45 270 94q254 78 276 84q47 16 101 43q0 35 4 170q4 104 4 168v355q0 57 -45 73v2q-31 6 -47 7q-133 0 -275 -129q-115 -102 -194 -246q-102 -182 -103 -500z" />
<glyph unicode="&#xc7;" horiz-adv-x="1138" d="M16 1214q0 137 72 220q76 90 209 90l702 2q33 0 90.5 -29.5t57.5 -58.5q0 -47 -76 -129q-57 -57 -113 -117l-122 2q10 20 79 94q55 59 56 105q0 74 -127 73h-41q-29 -2 -43 -2q-47 0 -144 2h-141q-100 0 -160 -94q-49 -80 -49 -188q0 -324 193 -600q143 -207 452 -453 q113 -90 154 -164q-193 33 -430 226q-186 152 -346 354q-172 217 -238 440q-35 117 -35 227zM528 -98q0 123 144 162q-20 -61 -21 -99q0 -56 76 -81q2 -53 -54.5 -132t-107.5 -79q-10 0 -20 4q53 80 53 141q0 14 -4 27h-19q-33 0 -40 10t-7 47z" />
<glyph unicode="&#xc8;" horiz-adv-x="1155" d="M6 1501h948q78 0 78 -90q0 -33 -67 -98q-49 -43 -99 -86l-118 2q133 102 133 172q0 55 -119 55h-447q-74 0 -73 -104q0 -182 18 -211q27 -8 78 -8h88q57 2 86 2q164 0 256 -29q-82 -76 -111 -76q-14 0 -39 6q-31 8 -38 11q-78 8 -248 8q-53 0 -68 -4q-27 -8 -24 -140v-51 q2 -268 149 -459q109 -139 373 -317q70 -47 98 -84h-6q-197 0 -465 236q-258 223 -323 419q-16 51 -17 103v655q0 27 -21 57zM311 1825q0 82 88 82q33 0 176.5 -137.5t143.5 -170.5q0 -16 -25 -16q-12 0 -34.5 4t-33.5 6q-53 20 -170 90q-131 78 -143 107h2q-4 20 -4 35z " />
<glyph unicode="&#xc9;" horiz-adv-x="1155" d="M6 1501h948q78 0 78 -90q0 -33 -67 -98q-49 -43 -99 -86l-118 2q133 102 133 172q0 55 -119 55h-447q-74 0 -73 -104q0 -182 18 -211q27 -8 78 -8h88q57 2 86 2q164 0 256 -29q-82 -76 -111 -76q-14 0 -39 6q-31 8 -38 11q-78 8 -248 8q-53 0 -68 -4q-27 -8 -24 -140v-51 q2 -268 149 -459q109 -139 373 -317q70 -47 98 -84h-6q-197 0 -465 236q-258 223 -323 419q-16 51 -17 103v655q0 27 -21 57zM486 1579q0 33 143 170.5t176 137.5q88 0 88 -82q0 -14 -4 -35h2q-12 -27 -140 -100.5t-171 -87.5q-55 -18 -74 -19q-20 0 -20 16z" />
<glyph unicode="&#xca;" horiz-adv-x="1155" d="M6 1501h948q78 0 78 -90q0 -33 -67 -98q-49 -43 -99 -86l-118 2q133 102 133 172q0 55 -119 55h-447q-74 0 -73 -104q0 -182 18 -211q27 -8 78 -8h88q57 2 86 2q164 0 256 -29q-82 -76 -111 -76q-14 0 -39 6q-31 8 -38 11q-78 8 -248 8q-53 0 -68 -4q-27 -8 -24 -140v-51 q2 -268 149 -459q109 -139 373 -317q70 -47 98 -84h-6q-197 0 -465 236q-258 223 -323 419q-16 51 -17 103v655q0 27 -21 57zM278 1587q0 27 129 155t156 128q33 0 164 -127t131 -156t-66 -27q-35 14 -225 138q-74 -53 -106 -74q-63 -41 -117 -61q-66 -2 -66 24z" />
<glyph unicode="&#xcb;" horiz-adv-x="1155" d="M6 1501h948q78 0 78 -90q0 -33 -67 -98q-49 -43 -99 -86l-118 2q133 102 133 172q0 55 -119 55h-447q-74 0 -73 -104q0 -182 18 -211q27 -8 78 -8h88q57 2 86 2q164 0 256 -29q-82 -76 -111 -76q-14 0 -39 6q-31 8 -38 11q-78 8 -248 8q-53 0 -68 -4q-27 -8 -24 -140v-51 q2 -268 149 -459q109 -139 373 -317q70 -47 98 -84h-6q-197 0 -465 236q-258 223 -323 419q-16 51 -17 103v655q0 27 -21 57zM309 1599q0 49 47.5 100.5t96.5 51.5q78 -1 78 -99q0 -57 -60 -92q-49 -29 -112 -28q-49 0 -50 67zM672 1599q0 49 47 100.5t96 51.5q78 -1 78 -99 q0 -57 -59 -92q-49 -29 -113 -28q-49 0 -49 67z" />
<glyph unicode="&#xcc;" horiz-adv-x="432" d="M-37 1845q0 82 88 82q33 0 176.5 -137.5t143.5 -170.5q0 -16 -25 -16q-12 0 -34.5 4t-33.5 6q-53 20 -170 90q-131 78 -143 107h2q-4 20 -4 35zM90 1450q86 27 258 74q-10 -115 -10 -275v-153q2 -102 2 -154l-2 -770q-1 -37 24 -84q-133 -55 -264 -88q12 59 15 250l4 899 q0 233 -27 301z" />
<glyph unicode="&#xcd;" horiz-adv-x="446" d="M90 1450q86 27 258 74q-10 -115 -10 -275v-153q2 -102 2 -154l-2 -770q-1 -37 24 -84q-133 -55 -264 -88q12 59 15 250l4 899q0 233 -27 301zM117 1599q0 33 143 170.5t176 137.5q88 0 88 -82q0 -14 -4 -35h2q-12 -27 -140 -100.5t-171 -87.5q-55 -18 -74 -19 q-20 0 -20 16z" />
<glyph unicode="&#xce;" horiz-adv-x="452" d="M-49 1587q0 27 129 155t156 128q33 0 164 -127t131 -156t-66 -27q-35 14 -225 138q-74 -53 -106 -74q-63 -41 -117 -61q-66 -2 -66 24zM90 1450q86 27 258 74q-10 -115 -10 -275v-153q2 -102 2 -154l-2 -770q-1 -37 24 -84q-133 -55 -264 -88q12 59 15 250l4 899 q0 233 -27 301z" />
<glyph unicode="&#xcf;" horiz-adv-x="462" d="M-64 1683q0 49 47.5 100.5t96.5 51.5q78 -1 78 -99q0 -57 -60 -92q-49 -29 -112 -28q-49 0 -50 67zM90 1450q86 27 258 74q-10 -115 -10 -275v-153q2 -102 2 -154l-2 -770q-1 -37 24 -84q-133 -55 -264 -88q12 59 15 250l4 899q0 233 -27 301zM299 1683q0 49 47 100.5 t96 51.5q78 -1 78 -99q0 -57 -59 -92q-49 -29 -113 -28q-49 0 -49 67z" />
<glyph unicode="&#xd0;" horiz-adv-x="1390" d="M33 829q0 92 135 97v2v209q0 297 -29 366l838 2q356 0 356 -383q0 -76 -49 -223q-131 -377 -483 -663q-283 -227 -654 -240q18 51 19 588v180h-16h-19q-27 0 -59 20q-39 23 -39 45zM385 131q266 33 489 363q209 306 209 587q0 141 -79 254q-72 104 -218 105 q-35 0 -102.5 2t-101.5 2q-197 0 -197 -25v-497q70 0 139 -2q109 -2 113 -19q-31 -70 -252 -110v-660z" />
<glyph unicode="&#xd1;" horiz-adv-x="1384" d="M88 1522v2q246 -2 733 -4q252 -2 393 -179q127 -161 127 -419q0 -184 -93 -423t-218 -378q-78 -90 -147 -103q23 51 63 152q172 399 172 678q0 305 -110 432q-106 121 -244 156q-90 23 -322 22q-84 0 -106.5 -28.5t-22.5 -120.5q0 -315 4 -949q0 -53 5 -157 q6 -70 45 -107q-31 -25 -131 -57q-86 -29 -144 -39q23 43 23 195v71q-2 49 -2 74q0 160 3 482.5t3 482.5q0 147 -31 217zM344 1563q23 82 43 163q37 90 125 91q68 0 142.5 -56.5t127.5 -56.5q92 0 119 90q21 -58 21 -72q0 -55 -56.5 -106t-111.5 -51q-59 0 -139 56t-123 56 q-20 0 -60 -53q-45 -63 -57 -70z" />
<glyph unicode="&#xd2;" horiz-adv-x="1605" d="M61 1044q0 266 137.5 373t331.5 107h258q172 2 259 2q503 0 503 -461q0 -385 -227 -717q-236 -348 -516 -348q-203 0 -385 188q-160 162 -264 420q-96 240 -97 436zM293 1006q0 -522 266 -775q137 -131 248 -131q207 0 364 369q129 307 129 553q0 432 -460 432 q-264 0 -405.5 -82t-141.5 -366zM557 1825q0 82 88 82q33 0 176.5 -137.5t143.5 -170.5q0 -16 -25 -16q-12 0 -34.5 4t-33.5 6q-53 20 -170 90q-131 78 -143 107h2q-4 20 -4 35z" />
<glyph unicode="&#xd3;" horiz-adv-x="1605" d="M61 1044q0 266 137.5 373t331.5 107h258q172 2 259 2q503 0 503 -461q0 -385 -227 -717q-236 -348 -516 -348q-203 0 -385 188q-160 162 -264 420q-96 240 -97 436zM293 1006q0 -522 266 -775q137 -131 248 -131q207 0 364 369q129 307 129 553q0 432 -460 432 q-264 0 -405.5 -82t-141.5 -366zM690 1599q0 33 143 170.5t176 137.5q88 0 88 -82q0 -14 -4 -35h2q-12 -27 -140 -100.5t-171 -87.5q-55 -18 -74 -19q-20 0 -20 16z" />
<glyph unicode="&#xd4;" horiz-adv-x="1605" d="M61 1044q0 266 137.5 373t331.5 107h258q172 2 259 2q503 0 503 -461q0 -385 -227 -717q-236 -348 -516 -348q-203 0 -385 188q-160 162 -264 420q-96 240 -97 436zM293 1006q0 -522 266 -775q137 -131 248 -131q207 0 364 369q129 307 129 553q0 432 -460 432 q-264 0 -405.5 -82t-141.5 -366zM545 1587q0 27 129 155t156 128q33 0 164 -127t131 -156t-66 -27q-35 14 -225 138q-74 -53 -106 -74q-63 -41 -117 -61q-66 -2 -66 24z" />
<glyph unicode="&#xd5;" horiz-adv-x="1605" d="M61 1044q0 266 137.5 373t331.5 107h258q172 2 259 2q503 0 503 -461q0 -385 -227 -717q-236 -348 -516 -348q-203 0 -385 188q-160 162 -264 420q-96 240 -97 436zM293 1006q0 -522 266 -775q137 -131 248 -131q207 0 364 369q129 307 129 553q0 432 -460 432 q-264 0 -405.5 -82t-141.5 -366zM502 1602q23 82 43 163q37 90 125 91q68 0 142.5 -56.5t127.5 -56.5q92 0 119 90q21 -58 21 -72q0 -55 -56.5 -106t-111.5 -51q-59 0 -139 56t-123 56q-20 0 -60 -53q-45 -63 -57 -70z" />
<glyph unicode="&#xd6;" horiz-adv-x="1605" d="M61 1044q0 266 137.5 373t331.5 107h258q172 2 259 2q503 0 503 -461q0 -385 -227 -717q-236 -348 -516 -348q-203 0 -385 188q-160 162 -264 420q-96 240 -97 436zM293 1006q0 -522 266 -775q137 -131 248 -131q207 0 364 369q129 307 129 553q0 432 -460 432 q-264 0 -405.5 -82t-141.5 -366zM514 1622q0 49 47.5 100.5t96.5 51.5q78 -1 78 -99q0 -57 -60 -92q-49 -29 -112 -28q-49 0 -50 67zM877 1622q0 49 47 100.5t96 51.5q78 -1 78 -99q0 -57 -59 -92q-49 -29 -113 -28q-49 0 -49 67z" />
<glyph unicode="&#xd7;" horiz-adv-x="993" d="M113 215q0 63 71 141q27 29 138 121q72 61 71 88q0 33 -69 80q-104 74 -127 96q-70 66 -70 144q0 55 78 55q70 0 100 -84q16 -51 80 -111l104 -90q61 51 121 103q68 66 90 127q-2 4 -2 8q0 25 31 50.5t57 25.5q45 0 45 -70q0 -41 -253 -295q57 -61 182 -176 q88 -70 100 -84q45 -49 45 -121q0 -45 -37 -65l-118 22q-35 123 -93 185q-43 47 -172 118q-94 -63 -186 -237q-55 -100 -115 -101q-27 0 -49 21.5t-22 48.5z" />
<glyph unicode="&#xd8;" horiz-adv-x="1605" d="M18 1044q0 272 138 373q145 106 331 107q63 0 191.5 3t191.5 3q109 0 195 -6q66 100 80 118q59 68 115 68q55 0 55 -53q0 -55 -62 -170q254 -98 254 -422q0 -383 -227 -717q-236 -348 -518 -348q-186 0 -361 168q-88 -119 -98 -129q-78 -92 -119 -92q-4 0 -18 3t-23 3v14 q0 53 37 119q35 55 68 109q16 31 47 94q-125 162 -199 356q-78 207 -78 399zM250 1006q0 -346 125 -578q223 385 624 997q-92 29 -200 29q-264 0 -406.5 -82t-142.5 -366zM477 272q57 -66 131 -114q90 -57 160 -58q205 0 360 369q129 309 129 553q0 203 -96 309 q-113 -195 -350 -577q-141 -219 -334 -482z" />
<glyph unicode="&#xd9;" horiz-adv-x="1384" d="M43 575q0 213 101.5 464t248.5 403q27 27 41 39q23 18 47 26q-150 -406 -153 -415q-70 -227 -70 -439q0 -205 107 -381q125 -203 317 -202q10 0 319 10q55 43 56 313q0 965 -51 1039q104 51 233 71v-1290q0 -72 59 -213l-696 2q-272 0 -415.5 149.5t-143.5 423.5z M516 1764q0 82 88 82q33 0 176.5 -137.5t143.5 -170.5q0 -16 -25 -16q-12 0 -34.5 4t-33.5 6q-53 20 -170 90q-131 78 -143 107h2q-4 20 -4 35z" />
<glyph unicode="&#xda;" horiz-adv-x="1384" d="M43 575q0 213 101.5 464t248.5 403q27 27 41 39q23 18 47 26q-150 -406 -153 -415q-70 -227 -70 -439q0 -205 107 -381q125 -203 317 -202q10 0 319 10q55 43 56 313q0 965 -51 1039q104 51 233 71v-1290q0 -72 59 -213l-696 2q-272 0 -415.5 149.5t-143.5 423.5z M690 1517q0 33 143 170.5t176 137.5q88 0 88 -82q0 -14 -4 -35h2q-12 -27 -140 -100.5t-171 -87.5q-55 -18 -74 -19q-20 0 -20 16z" />
<glyph unicode="&#xdb;" horiz-adv-x="1384" d="M43 575q0 213 101.5 464t248.5 403q27 27 41 39q23 18 47 26q-150 -406 -153 -415q-70 -227 -70 -439q0 -205 107 -381q125 -203 317 -202q10 0 319 10q55 43 56 313q0 965 -51 1039q104 51 233 71v-1290q0 -72 59 -213l-696 2q-272 0 -415.5 149.5t-143.5 423.5z M565 1587q0 27 129 155t156 128q33 0 164 -127t131 -156t-66 -27q-35 14 -225 138q-74 -53 -106 -74q-63 -41 -117 -61q-66 -2 -66 24z" />
<glyph unicode="&#xdc;" horiz-adv-x="1384" d="M43 575q0 213 101.5 464t248.5 403q27 27 41 39q23 18 47 26q-150 -406 -153 -415q-70 -227 -70 -439q0 -205 107 -381q125 -203 317 -202q10 0 319 10q55 43 56 313q0 965 -51 1039q104 51 233 71v-1290q0 -72 59 -213l-696 2q-272 0 -415.5 149.5t-143.5 423.5z M479 1599q0 49 47.5 100.5t96.5 51.5q78 -1 78 -99q0 -57 -60 -92q-49 -29 -112 -28q-49 0 -50 67zM842 1599q0 49 47 100.5t96 51.5q78 -1 78 -99q0 -57 -59 -92q-49 -29 -113 -28q-49 0 -49 67z" />
<glyph unicode="&#xdd;" horiz-adv-x="1294" d="M53 1382q0 47 58 103l221 2q-6 -12 -37 -64q-20 -33 -21 -71q0 -66 172 -260.5t236 -196.5q414 393 414 471q0 63 -115 64q-16 0 -44 -2.5t-34 -2.5q10 68 164 68q10 0 35 -2h35q106 0 106 -66q0 -61 -170 -284q-242 -324 -311 -436q-168 -268 -168 -437q0 -96 48 -152.5 t99 -115.5l-340 2q-102 51 -102 176q0 113 68 240q33 59 129 194q70 96 69 131q0 35 -133 146q-182 152 -248 223q-131 147 -131 270zM527 1476q0 33 143 170.5t176 137.5q88 0 88 -82q0 -14 -4 -35h2q-12 -27 -140 -100.5t-171 -87.5q-55 -18 -74 -19q-20 0 -20 16z" />
<glyph unicode="&#xde;" horiz-adv-x="1089" d="M16 1505l52 8l-52 -6l250 49l-12 -282h614q82 0 132.5 -46t50.5 -126q0 -279 -664 -549q-45 -18 -70 -31q-53 -27 -53 -45v-121q0 -55 8 -137q14 -106 35 -119q-20 -16 -117 -53q-68 -23 -133 -47q16 49 17 676q0 43 2 133v133q0 190 -10 248q-2 8 -21 168 q-16 129 -29 147zM250 625q152 47 291 127q162 92 245 196q29 35 62 92q2 10 2 47q0 39 -25.5 79t-62.5 40l-512 2v-583z" />
<glyph unicode="&#xdf;" horiz-adv-x="937" d="M59 0q10 43 21 131q2 43 2 807q0 410 73.5 491.5t284.5 81.5q41 0 215 -4q80 -2 135.5 -58t55.5 -136q0 -86 -72 -168q-39 -45 -135 -119q-72 -57 -72 -78q0 -25 60 -82q41 -39 80 -75q127 -121 180 -226q27 -49 26 -119q0 -109 -102 -247q-86 -115 -195 -193 q-47 -37 -96 -72q-55 -36 -110 -40q55 80 172 233q125 152 125 285q0 72 -105 213q-80 100 -158 198q-14 16 -27.5 33.5t-13.5 38.5q0 18 35 57q2 0 54 43q182 150 182 287q0 74 -76 123q-68 45 -143 45q-100 0 -138 -76q-25 -51 -24 -166v-315q-6 -268 -21 -805 q-31 -27 -102 -51q-55 -18 -111 -37z" />
<glyph unicode="&#xe0;" horiz-adv-x="1015" d="M55 258q0 147 176 295q86 72 324 211q174 102 174 143q0 72 -209 72q-123 0 -153 -6q-102 -16 -103 -80q0 -18 31 -62.5t51 -64.5l-113 2q-119 115 -118 182q47 98 135 99l418 2q141 0 213 -103q61 -88 61 -233q0 -72 -2 -214.5t-2 -211.5q0 -158 35 -217 q-129 -72 -221 -72q-6 0 -24.5 12.5t-45.5 12.5q-47 0 -142.5 -25t-146.5 -25q-135 0 -231 72q-106 80 -107 211zM238 1424q0 82 88 82q33 0 176.5 -137.5t143.5 -170.5q0 -16 -25 -16q-12 0 -34.5 4t-33.5 6q-53 20 -170 90q-131 78 -143 107h2q-4 20 -4 35zM264 305 q0 -84 79 -158.5t163 -74.5q231 0 231 217l-4 454q-74 -16 -159 -75.5t-185 -165.5q-125 -131 -125 -197z" />
<glyph unicode="&#xe1;" horiz-adv-x="1015" d="M55 258q0 147 176 295q86 72 324 211q174 102 174 143q0 72 -209 72q-123 0 -153 -6q-102 -16 -103 -80q0 -18 31 -62.5t51 -64.5l-113 2q-119 115 -118 182q47 98 135 99l418 2q141 0 213 -103q61 -88 61 -233q0 -72 -2 -214.5t-2 -211.5q0 -158 35 -217 q-129 -72 -221 -72q-6 0 -24.5 12.5t-45.5 12.5q-47 0 -142.5 -25t-146.5 -25q-135 0 -231 72q-106 80 -107 211zM264 305q0 -84 79 -158.5t163 -74.5q231 0 231 217l-4 454q-74 -16 -159 -75.5t-185 -165.5q-125 -131 -125 -197zM383 1179q0 33 143 170.5t176 137.5 q88 0 88 -82q0 -14 -4 -35h2q-12 -27 -140 -100.5t-171 -87.5q-55 -18 -74 -19q-20 0 -20 16z" />
<glyph unicode="&#xe2;" horiz-adv-x="1015" d="M55 258q0 147 176 295q86 72 324 211q174 102 174 143q0 72 -209 72q-123 0 -153 -6q-102 -16 -103 -80q0 -18 31 -62.5t51 -64.5l-113 2q-119 115 -118 182q47 98 135 99l418 2q141 0 213 -103q61 -88 61 -233q0 -72 -2 -214.5t-2 -211.5q0 -158 35 -217 q-129 -72 -221 -72q-6 0 -24.5 12.5t-45.5 12.5q-47 0 -142.5 -25t-146.5 -25q-135 0 -231 72q-106 80 -107 211zM264 305q0 -84 79 -158.5t163 -74.5q231 0 231 217l-4 454q-74 -16 -159 -75.5t-185 -165.5q-125 -131 -125 -197zM280 1200q0 27 129 155t156 128 q33 0 164 -127t131 -156t-66 -27q-35 14 -225 138q-74 -53 -106 -74q-63 -41 -117 -61q-66 -2 -66 24z" />
<glyph unicode="&#xe3;" horiz-adv-x="1015" d="M55 258q0 147 176 295q86 72 324 211q174 102 174 143q0 72 -209 72q-123 0 -153 -6q-102 -16 -103 -80q0 -18 31 -62.5t51 -64.5l-113 2q-119 115 -118 182q47 98 135 99l418 2q141 0 213 -103q61 -88 61 -233q0 -72 -2 -214.5t-2 -211.5q0 -158 35 -217 q-129 -72 -221 -72q-6 0 -24.5 12.5t-45.5 12.5q-47 0 -142.5 -25t-146.5 -25q-135 0 -231 72q-106 80 -107 211zM215 1215q23 82 43 163q37 90 125 91q68 0 142.5 -56.5t127.5 -56.5q92 0 119 90q21 -58 21 -72q0 -55 -56.5 -106t-111.5 -51q-59 0 -139 56t-123 56 q-20 0 -60 -53q-45 -63 -57 -70zM264 305q0 -84 79 -158.5t163 -74.5q231 0 231 217l-4 454q-74 -16 -159 -75.5t-185 -165.5q-125 -131 -125 -197z" />
<glyph unicode="&#xe4;" horiz-adv-x="1015" d="M55 258q0 147 176 295q86 72 324 211q174 102 174 143q0 72 -209 72q-123 0 -153 -6q-102 -16 -103 -80q0 -18 31 -62.5t51 -64.5l-113 2q-119 115 -118 182q47 98 135 99l418 2q141 0 213 -103q61 -88 61 -233q0 -72 -2 -214.5t-2 -211.5q0 -158 35 -217 q-129 -72 -221 -72q-6 0 -24.5 12.5t-45.5 12.5q-47 0 -142.5 -25t-146.5 -25q-135 0 -231 72q-106 80 -107 211zM237 1286q0 49 47.5 100.5t96.5 51.5q78 -1 78 -99q0 -57 -60 -92q-49 -29 -112 -28q-49 0 -50 67zM264 305q0 -84 79 -158.5t163 -74.5q231 0 231 217l-4 454 q-74 -16 -159 -75.5t-185 -165.5q-125 -131 -125 -197zM600 1286q0 49 47 100.5t96 51.5q78 -1 78 -99q0 -57 -59 -92q-49 -29 -113 -28q-49 0 -49 67z" />
<glyph unicode="&#xe5;" horiz-adv-x="1015" d="M55 258q0 147 176 295q86 72 324 211q174 102 174 143q0 72 -209 72q-123 0 -153 -6q-102 -16 -103 -80q0 -18 31 -62.5t51 -64.5l-113 2q-119 115 -118 182q47 98 135 99l418 2q141 0 213 -103q61 -88 61 -233q0 -72 -2 -214.5t-2 -211.5q0 -158 35 -217 q-129 -72 -221 -72q-6 0 -24.5 12.5t-45.5 12.5q-47 0 -142.5 -25t-146.5 -25q-135 0 -231 72q-106 80 -107 211zM264 305q0 -84 79 -158.5t163 -74.5q231 0 231 217l-4 454q-74 -16 -159 -75.5t-185 -165.5q-125 -131 -125 -197zM373 1280q0 63 63.5 110.5t124.5 47.5 q57 0 115 -41q76 -54 76 -111q0 -82 -57.5 -157.5t-135.5 -75.5q-82 0 -149 98q-37 55 -37 129zM463 1300q0 -61 20 -122q27 -82 70 -82q41 0 65 71q21 56 21 109q0 96 -104 96q-72 0 -72 -72z" />
<glyph unicode="&#xe6;" horiz-adv-x="1646" d="M16 258q0 156 187 305q78 63 319 203q63 37 88 53q59 39 74 68l4 33q-14 57 -209 57q-127 0 -153 -4q-100 -14 -101 -80q0 -35 82 -127l-112 2q-119 117 -119 182q0 43 45 71t90 28l418 2q78 0 131 -29q88 29 332 29q373 0 408.5 -11.5t68.5 -52.5t33 -80 q0 -115 -123 -248q-68 -74 -228 -202q-123 -96 -123 -123q0 -29 158 -166q170 -147 191 -186q-123 4 -314 141q-158 113 -264 237q0 -12 -2 -49v-49q0 -154 35 -209q-53 -31 -217 -63q-20 35 -45 35q-51 0 -153.5 -25t-156.5 -25q-137 0 -235 72q-109 78 -109 211zM225 305 q0 -84 79 -158.5t163 -74.5q115 0 164 28q67 39 67 148q0 84 -2 327q2 59 -4 168q-72 -18 -156.5 -76.5t-187.5 -164.5q-123 -133 -123 -197zM901 834q0 -86 35 -187q74 -215 139 -215q82 0 209 164t127 252q0 84 -49 113q-37 20 -127 20h-61h-60q-102 0 -147 -23 q-66 -33 -66 -124z" />
<glyph unicode="&#xe7;" horiz-adv-x="991" d="M47 879q0 109 90 145q109 45 330 45q274 0 383 -12q92 -11 92 -60q0 -51 -61 -110q0 -2 -101 -86l-90 2q2 4 62 78q43 51 43 82q0 43 -269 43q-127 0 -172 -29q-61 -39 -61 -160q0 -211 141 -401q98 -131 311 -305q80 -66 101 -111q-168 16 -365 156q-170 123 -291 280 q-53 74 -98 211t-45 232zM426 -154q0 123 144 162q-20 -61 -21 -99q0 -56 76 -81q2 -53 -54.5 -132t-107.5 -79q-10 0 -20 4q53 80 53 141q0 14 -4 27h-19q-33 0 -40 10t-7 47z" />
<glyph unicode="&#xe8;" horiz-adv-x="999" d="M53 872q0 139 78 168q72 29 320 29q35 0 104 -2h104q150 0 194 -6t81 -49t37 -86q0 -115 -123 -248q-68 -74 -227 -203q-123 -96 -123 -123q0 -29 157 -166q170 -150 191 -186q-61 2 -160 51q-287 137 -498 428q-135 184 -135 393zM193 1438q0 82 88 82 q33 0 176.5 -137.5t143.5 -170.5q0 -16 -25 -16q-12 0 -34.5 4t-33.5 6q-53 20 -170 90q-131 78 -143 107h2q-4 20 -4 35zM270 852q0 -86 35 -186q74 -215 141 -215q80 0 209 167q125 162 125 248q0 96 -58 115.5t-214 19.5q-111 0 -160 -20q-78 -33 -78 -129z" />
<glyph unicode="&#xe9;" horiz-adv-x="999" d="M53 872q0 139 78 168q72 29 320 29q35 0 104 -2h104q150 0 194 -6t81 -49t37 -86q0 -115 -123 -248q-68 -74 -227 -203q-123 -96 -123 -123q0 -29 157 -166q170 -150 191 -186q-61 2 -160 51q-287 137 -498 428q-135 184 -135 393zM270 852q0 -86 35 -186 q74 -215 141 -215q80 0 209 167q125 162 125 248q0 96 -58 115.5t-214 19.5q-111 0 -160 -20q-78 -33 -78 -129zM398 1189q0 33 143 170.5t176 137.5q88 0 88 -82q0 -14 -4 -35h2q-12 -27 -140 -100.5t-171 -87.5q-55 -18 -74 -19q-20 0 -20 16z" />
<glyph unicode="&#xea;" horiz-adv-x="999" d="M53 872q0 139 78 168q72 29 320 29q35 0 104 -2h104q150 0 194 -6t81 -49t37 -86q0 -115 -123 -248q-68 -74 -227 -203q-123 -96 -123 -123q0 -29 157 -166q170 -150 191 -186q-61 2 -160 51q-287 137 -498 428q-135 184 -135 393zM196 1188q0 27 129 155t156 128 q33 0 164 -127t131 -156t-66 -27q-35 14 -225 138q-74 -53 -106 -74q-63 -41 -117 -61q-66 -2 -66 24zM270 852q0 -86 35 -186q74 -215 141 -215q80 0 209 167q125 162 125 248q0 96 -58 115.5t-214 19.5q-111 0 -160 -20q-78 -33 -78 -129z" />
<glyph unicode="&#xeb;" horiz-adv-x="999" d="M53 872q0 139 78 168q72 29 320 29q35 0 104 -2h104q150 0 194 -6t81 -49t37 -86q0 -115 -123 -248q-68 -74 -227 -203q-123 -96 -123 -123q0 -29 157 -166q170 -150 191 -186q-61 2 -160 51q-287 137 -498 428q-135 184 -135 393zM186 1286q0 49 47.5 100.5t96.5 51.5 q78 -1 78 -99q0 -57 -60 -92q-49 -29 -112 -28q-49 0 -50 67zM270 852q0 -86 35 -186q74 -215 141 -215q80 0 209 167q125 162 125 248q0 96 -58 115.5t-214 19.5q-111 0 -160 -20q-78 -33 -78 -129zM549 1286q0 49 47 100.5t96 51.5q78 -1 78 -99q0 -57 -59 -92 q-49 -29 -113 -28q-49 0 -49 67z" />
<glyph unicode="&#xec;" horiz-adv-x="380" d="M-111 1409q0 82 88 82q33 0 176.5 -137.5t143.5 -170.5q0 -16 -25 -16q-12 0 -34.5 4t-33.5 6q-53 20 -170 90q-131 78 -143 107h2q-4 20 -4 35zM27 0q6 20 39 70q23 39 22 82v782q0 33 -20 59q18 33 106 56q121 28 127 32q-20 -45 -20 -88v-925q-166 -66 -254 -68z" />
<glyph unicode="&#xed;" horiz-adv-x="380" d="M27 0q6 20 39 70q23 39 22 82v782q0 33 -20 59q18 33 106 56q121 28 127 32q-20 -45 -20 -88v-925q-166 -66 -254 -68zM117 1169q0 33 132 172.5t163 139.5q82 0 82 -82q0 -16 -5 -35v-2q-10 -27 -127.5 -101.5t-158.5 -89.5q-49 -16 -68 -16q-18 0 -18 14z" />
<glyph unicode="&#xee;" horiz-adv-x="380" d="M-61 1184q0 23 119.5 139.5t146.5 116.5q29 0 151.5 -114.5t122.5 -143.5q0 -25 -61 -23q-33 12 -211 125q-70 -49 -101 -67q-57 -37 -108 -58q-59 -2 -59 25zM27 0q6 20 39 70q23 39 22 82v782q0 33 -20 59q18 33 106 56q121 28 127 32q-20 -45 -20 -88v-925 q-166 -66 -254 -68z" />
<glyph unicode="&#xef;" horiz-adv-x="380" d="M-41 1270q0 41 42 83t85 42q70 0 70 -80q0 -49 -54 -78q-43 -23 -100 -23q-43 0 -43 56zM27 0q6 20 39 70q23 39 22 82v782q0 33 -20 59q18 33 106 56q121 28 127 32q-20 -45 -20 -88v-925q-166 -66 -254 -68zM283 1270q0 41 42 83t85 42q69 0 69 -80q0 -49 -53 -78 q-43 -23 -100 -23q-43 0 -43 56z" />
<glyph unicode="&#xf0;" horiz-adv-x="1122" d="M70 690q0 141 59 240q72 119 205 119q-2 0 395 2q-82 111 -223 237q-137 -90 -174 -90q-59 0 -60 49q0 41 142 121q-70 59 -211 182q8 2 18 2q100 0 307 -122q66 37 131 71q96 49 129 58q-31 -90 -165 -189q460 -319 460 -622q0 -201 -159 -472q-176 -297 -361 -296 q-199 0 -391 315q-102 166 -102 395zM254 678q0 -322 149 -494q84 -96 152 -96q129 0 238 238q94 204 94 356q0 104 -88 258q-66 45 -217 45q-170 0 -246 -67q-82 -72 -82 -240z" />
<glyph unicode="&#xf1;" horiz-adv-x="1130" d="M61 1081l312 2q4 0 176 -12q260 -20 414 -143q108 -88 108 -262q0 -152 -115 -379q-125 -244 -254 -287q10 47 39 113q25 53 50 108q88 215 88 397q0 195 -136 306q-127 102 -325 102q-70 0 -88 -6q-29 -10 -35 -131q-18 -301 -19 -545q0 -125 23 -266q-33 -27 -111 -51 q-59 -18 -120 -35q16 90 16 139l4 821q0 43 -27 129zM252 1231q23 82 43 163q37 90 125 91q68 0 142.5 -56.5t127.5 -56.5q92 0 119 90q21 -58 21 -72q0 -55 -56.5 -106t-111.5 -51q-59 0 -139 56t-123 56q-20 0 -60 -53q-45 -63 -57 -70z" />
<glyph unicode="&#xf2;" d="M70 690q0 141 59 240q72 119 205 119q-2 0 457 2q68 0 145 -47q149 -91 149 -302q0 -229 -141 -450q-158 -252 -373 -252q-117 0 -233 96q-94 78 -166 199q-102 168 -102 395zM254 678q0 -322 149 -494q84 -96 152 -96q129 0 238 238q94 204 94 356q0 176 -64.5 239.5 t-240.5 63.5q-170 0 -246 -67q-82 -72 -82 -240zM279 1409q0 82 88 82q33 0 176.5 -137.5t143.5 -170.5q0 -16 -25 -16q-12 0 -34.5 4t-33.5 6q-53 20 -170 90q-131 78 -143 107h2q-4 20 -4 35z" />
<glyph unicode="&#xf3;" d="M70 690q0 141 59 240q72 119 205 119q-2 0 457 2q68 0 145 -47q149 -91 149 -302q0 -229 -141 -450q-158 -252 -373 -252q-117 0 -233 96q-94 78 -166 199q-102 168 -102 395zM254 678q0 -322 149 -494q84 -96 152 -96q129 0 238 238q94 204 94 356q0 176 -64.5 239.5 t-240.5 63.5q-170 0 -246 -67q-82 -72 -82 -240zM471 1196q0 33 143 170.5t176 137.5q88 0 88 -82q0 -14 -4 -35h2q-12 -27 -140 -100.5t-171 -87.5q-55 -18 -74 -19q-20 0 -20 16z" />
<glyph unicode="&#xf4;" d="M70 690q0 141 59 240q72 119 205 119q-2 0 457 2q68 0 145 -47q149 -91 149 -302q0 -229 -141 -450q-158 -252 -373 -252q-117 0 -233 96q-94 78 -166 199q-102 168 -102 395zM254 678q0 -322 149 -494q84 -96 152 -96q129 0 238 238q94 204 94 356q0 176 -64.5 239.5 t-240.5 63.5q-170 0 -246 -67q-82 -72 -82 -240zM305 1157q0 27 129 155t156 128q33 0 164 -127t131 -156t-66 -27q-35 14 -225 138q-74 -53 -106 -74q-63 -41 -117 -61q-66 -2 -66 24z" />
<glyph unicode="&#xf5;" d="M70 690q0 141 59 240q72 119 205 119q-2 0 457 2q68 0 145 -47q149 -91 149 -302q0 -229 -141 -450q-158 -252 -373 -252q-117 0 -233 96q-94 78 -166 199q-102 168 -102 395zM254 678q0 -322 149 -494q84 -96 152 -96q129 0 238 238q94 204 94 356q0 176 -64.5 239.5 t-240.5 63.5q-170 0 -246 -67q-82 -72 -82 -240zM260 1215q23 82 43 163q37 90 125 91q68 0 142.5 -56.5t127.5 -56.5q92 0 119 90q21 -58 21 -72q0 -55 -56.5 -106t-111.5 -51q-59 0 -139 56t-123 56q-20 0 -60 -53q-45 -63 -57 -70z" />
<glyph unicode="&#xf6;" d="M70 690q0 141 59 240q72 119 205 119q-2 0 457 2q68 0 145 -47q149 -91 149 -302q0 -229 -141 -450q-158 -252 -373 -252q-117 0 -233 96q-94 78 -166 199q-102 168 -102 395zM254 678q0 -322 149 -494q84 -96 152 -96q129 0 238 238q94 204 94 356q0 176 -64.5 239.5 t-240.5 63.5q-170 0 -246 -67q-82 -72 -82 -240zM266 1280q0 49 47.5 100.5t96.5 51.5q78 -1 78 -99q0 -57 -60 -92q-49 -29 -112 -28q-49 0 -50 67zM629 1280q0 49 47 100.5t96 51.5q78 -1 78 -99q0 -57 -59 -92q-49 -29 -113 -28q-49 0 -49 67z" />
<glyph unicode="&#xf7;" horiz-adv-x="786" d="M25 530q0 47 43 84q27 4 59 4q25 0 75 -3t74 -3q201 0 342 -10q-6 0 68 0q82 0 82 -18v-4q-12 -27 -62.5 -59t-82.5 -40q-175 -47 -529 -47q-33 0 -51 31t-18 65zM209 129q0 80 72 127q47 31 71 31q18 0 48 -40.5t30 -58.5q0 -57 -59 -94q-49 -29 -113 -28q-49 0 -49 63z M272 801q0 109 105 153q31 14 39 15q18 0 48 -40.5t30 -58.5q0 -57 -58 -92q-49 -31 -108 -30q-55 0 -56 53z" />
<glyph unicode="&#xf8;" d="M16 690q0 141 60 240q72 119 205 119q-2 0 383 2q53 82 143 204q57 78 111 78q61 0 61 -51q0 -72 -123 -264q176 -87 176 -316q0 -227 -141 -450q-158 -252 -373 -252q-133 0 -264 123q-63 -80 -107 -133q-86 -100 -110 -113q-2 23 -2 25q0 100 123 334q-23 33 -39 59 q-35 57 -70 192q-33 129 -33 203zM201 678q0 -158 43 -289q75 129 374 592q-39 4 -90 4q-170 0 -245 -67q-82 -72 -82 -240zM326 215q31 -43 77 -80q57 -47 99 -47q129 0 237 238q95 204 95 356q0 150 -50 223q-57 -98 -174 -291q-127 -193 -284 -399z" />
<glyph unicode="&#xf9;" horiz-adv-x="1146" d="M70 436q0 160 118.5 355.5t260.5 271.5q-31 -68 -89 -209q-37 -92 -73 -184q-41 -115 -41 -191q0 -233 149.5 -328.5t333.5 -95.5q102 0 102 37v514q0 227 -10 289q0 2 -47 92q29 18 125 53q125 47 139 52q-10 -25 -10 -142l-2 -489q0 -418 51 -461q-86 0 -260 -4 t-260 -4q-104 0 -166 12q-322 59 -321 432zM375 1424q0 82 88 82q33 0 176.5 -137.5t143.5 -170.5q0 -16 -25 -16q-12 0 -34.5 4t-33.5 6q-53 20 -170 90q-131 78 -143 107h2q-4 20 -4 35z" />
<glyph unicode="&#xfa;" horiz-adv-x="1146" d="M70 436q0 160 118.5 355.5t260.5 271.5q-31 -68 -89 -209q-37 -92 -73 -184q-41 -115 -41 -191q0 -233 149.5 -328.5t333.5 -95.5q102 0 102 37v514q0 227 -10 289q0 2 -47 92q29 18 125 53q125 47 139 52q-10 -25 -10 -142l-2 -489q0 -418 51 -461q-86 0 -260 -4 t-260 -4q-104 0 -166 12q-322 59 -321 432zM510 1193q0 33 143 170.5t176 137.5q88 0 88 -82q0 -14 -4 -35h2q-12 -27 -140 -100.5t-171 -87.5q-55 -18 -74 -19q-20 0 -20 16z" />
<glyph unicode="&#xfb;" horiz-adv-x="1146" d="M70 436q0 160 118.5 355.5t260.5 271.5q-31 -68 -89 -209q-37 -92 -73 -184q-41 -115 -41 -191q0 -233 149.5 -328.5t333.5 -95.5q102 0 102 37v514q0 227 -10 289q0 2 -47 92q29 18 125 53q125 47 139 52q-10 -25 -10 -142l-2 -489q0 -418 51 -461q-86 0 -260 -4 t-260 -4q-104 0 -166 12q-322 59 -321 432zM403 1216q0 27 129 155t156 128q33 0 164 -127t131 -156t-66 -27q-35 14 -225 138q-74 -53 -106 -74q-63 -41 -117 -61q-66 -2 -66 24z" />
<glyph unicode="&#xfc;" horiz-adv-x="1159" d="M70 436q0 160 118.5 355.5t260.5 271.5q-31 -68 -89 -209q-37 -92 -73 -184q-41 -115 -41 -191q0 -233 149.5 -328.5t333.5 -95.5q102 0 102 37v514q0 227 -10 289q0 2 -47 92q29 18 125 53q125 47 139 52q-10 -25 -10 -142l-2 -489q0 -418 51 -461q-86 0 -260 -4 t-260 -4q-104 0 -166 12q-322 59 -321 432zM415 1288q0 49 47.5 100.5t96.5 51.5q78 -1 78 -99q0 -57 -60 -92q-49 -29 -112 -28q-49 0 -50 67zM778 1288q0 49 47 100.5t96 51.5q78 -1 78 -99q0 -57 -59 -92q-49 -29 -113 -28q-49 0 -49 67z" />
<glyph unicode="&#xfd;" horiz-adv-x="1064" d="M70 963q0 119 129 118q25 0 71.5 -6t71.5 -6q0 -25 -18.5 -68t-18.5 -67q0 -86 101 -209q82 -96 176 -164q121 125 184 201q129 152 143 215q-133 31 -202 31q31 63 133 63q198 0 198 -80q0 -20 -145 -211q-180 -233 -272 -395q-145 -260 -146 -451q0 -104 31 -167 q39 -72 76 -144q-53 -8 -84 -8q-76 0 -147.5 48t-96.5 118q-14 45 -14 108q0 113 103 310.5t103 208.5q0 14 -98 118q-123 131 -180 213q-98 135 -98 224zM447 1163q0 33 143 170.5t176 137.5q88 0 88 -82q0 -14 -4 -35h2q-12 -27 -140 -100.5t-171 -87.5q-55 -18 -74 -19 q-20 0 -20 16z" />
<glyph unicode="&#xfe;" horiz-adv-x="1001" d="M20 -365q49 127 50 230q0 82 -2 248v245l2 988q0 84 -33 127v2q41 0 127 9t131 9v-8q0 -6 -2 -19.5t-2 -19.5q0 -59 -4 -177t-4 -175q0 -35 4 -38t49 -3q12 0 41 2h39q305 0 426 -39q129 -44 129 -271q0 -166 -103 -317q-92 -135 -245 -227q-31 -18 -160 -76 q-104 -45 -147.5 -82t-43.5 -115q0 -174 23 -198q-180 -68 -275 -95zM274 162q127 10 248 112q106 88 172 218q16 31 41 102q27 79 27 104q0 154 -96.5 234t-253.5 80q-59 0 -129 -13v2z" />
<glyph unicode="&#xff;" horiz-adv-x="1064" d="M70 963q0 119 129 118q25 0 71.5 -6t71.5 -6q0 -25 -18.5 -68t-18.5 -67q0 -86 101 -209q82 -96 176 -164q121 125 184 201q129 152 143 215q-133 31 -202 31q31 63 133 63q198 0 198 -80q0 -20 -145 -211q-180 -233 -272 -395q-145 -260 -146 -451q0 -104 31 -167 q39 -72 76 -144q-53 -8 -84 -8q-76 0 -147.5 48t-96.5 118q-14 45 -14 108q0 113 103 310.5t103 208.5q0 14 -98 118q-123 131 -180 213q-98 135 -98 224zM233 1282q0 49 47.5 100.5t96.5 51.5q78 -1 78 -99q0 -57 -60 -92q-49 -29 -112 -28q-49 0 -50 67zM596 1282 q0 49 47 100.5t96 51.5q78 -1 78 -99q0 -57 -59 -92q-49 -29 -113 -28q-49 0 -49 67z" />
<glyph unicode="&#x152;" horiz-adv-x="2224" d="M18 1044q0 272 140.5 376t328.5 104l517 2q49 0 174 -17q57 -6 61 -6h16v2h949q77 0 77 -90q0 -33 -69 -98q-49 -43 -96 -88l-119 2q133 104 133 172q0 57 -121 57h-444q-76 0 -76 -106q0 -176 20 -209q27 -8 78 -8h86q59 2 88 2q162 0 256 -29q-86 -76 -110 -76 q-16 0 -43 7.5t-37 7.5q-68 10 -213 10q-84 0 -107 -6q0 -35 -9 -108t-9 -109q0 -248 156 -441q111 -135 366 -307q70 -47 98 -84h-8q-164 0 -403 186q-213 166 -318 332q-100 -211 -243 -350q-180 -172 -373 -172q-203 0 -385 188q-160 164 -264 420q-96 242 -97 436z M250 1006q0 -305 84 -494q70 -160 170 -268q131 -139 272 -140q201 0 354 369q127 309 127 549q0 432 -458 432q-266 0 -407.5 -82t-141.5 -366z" />
<glyph unicode="&#x153;" horiz-adv-x="1769" d="M16 690q0 141 60 240q72 119 205 119q-2 0 456 2q61 0 140 -43q80 33 415 32q139 0 224 -4q33 0 94 -6q45 -6 80.5 -48t35.5 -87q0 -113 -122 -248q-66 -74 -228 -201q-123 -98 -123 -124q0 -27 158 -166q170 -150 191 -187q-139 6 -345 164q-168 131 -282 277 q-63 -160 -174 -273q-135 -137 -283 -137q-219 0 -399 295q-102 166 -103 395zM201 680q0 -324 149 -496q84 -96 152 -96q127 0 235 234q97 203 97 348q0 12 -10.5 94t-14.5 90q-39 131 -281 131q-168 0 -247.5 -69.5t-79.5 -235.5zM1026 821q0 -86 35 -186 q74 -215 139 -215q84 0 211 168q125 162 125 248q0 98 -60.5 117.5t-197.5 19.5q-117 0 -168 -19q-84 -33 -84 -133z" />
<glyph unicode="&#x178;" horiz-adv-x="1294" d="M53 1382q0 47 58 103l221 2q-6 -12 -37 -64q-20 -33 -21 -71q0 -66 172 -260.5t236 -196.5q414 393 414 471q0 63 -115 64q-16 0 -44 -2.5t-34 -2.5q10 68 164 68q10 0 35 -2h35q106 0 106 -66q0 -61 -170 -284q-242 -324 -311 -436q-168 -268 -168 -437q0 -96 48 -152.5 t99 -115.5l-340 2q-102 51 -102 176q0 113 68 240q33 59 129 194q70 96 69 131q0 35 -133 146q-182 152 -248 223q-131 147 -131 270zM338 1554q0 49 47.5 100.5t96.5 51.5q78 -1 78 -99q0 -57 -60 -92q-49 -29 -112 -28q-49 0 -50 67zM701 1554q0 49 47 100.5t96 51.5 q78 -1 78 -99q0 -57 -59 -92q-49 -29 -113 -28q-49 0 -49 67z" />
<glyph unicode="&#x2c6;" horiz-adv-x="696" d="M53 1157q0 27 129 155t156 128q33 0 164 -127t131 -156t-66 -27q-35 14 -225 138q-74 -53 -106 -74q-63 -41 -117 -61q-66 -2 -66 24z" />
<glyph unicode="&#x2dc;" horiz-adv-x="768" d="M90 1221q23 82 43 163q37 90 125 91q68 0 142.5 -56.5t127.5 -56.5q92 0 119 90q21 -58 21 -72q0 -55 -56.5 -106t-111.5 -51q-59 0 -139 56t-123 56q-20 0 -60 -53q-45 -63 -57 -70z" />
<glyph unicode="&#x2000;" horiz-adv-x="963" />
<glyph unicode="&#x2001;" horiz-adv-x="1927" />
<glyph unicode="&#x2002;" horiz-adv-x="963" />
<glyph unicode="&#x2003;" horiz-adv-x="1927" />
<glyph unicode="&#x2004;" horiz-adv-x="642" />
<glyph unicode="&#x2005;" horiz-adv-x="481" />
<glyph unicode="&#x2006;" horiz-adv-x="321" />
<glyph unicode="&#x2007;" horiz-adv-x="321" />
<glyph unicode="&#x2008;" horiz-adv-x="240" />
<glyph unicode="&#x2009;" horiz-adv-x="385" />
<glyph unicode="&#x200a;" horiz-adv-x="107" />
<glyph unicode="&#x2010;" horiz-adv-x="663" d="M61 791q0 96 158 96q178 0 281 -6q135 -7 170 -50q-94 -74 -178 -92q-203 -43 -351 -43q-35 0 -57.5 30t-22.5 65z" />
<glyph unicode="&#x2011;" horiz-adv-x="663" d="M61 791q0 96 158 96q178 0 281 -6q135 -7 170 -50q-94 -74 -178 -92q-203 -43 -351 -43q-35 0 -57.5 30t-22.5 65z" />
<glyph unicode="&#x2012;" horiz-adv-x="663" d="M61 791q0 96 158 96q178 0 281 -6q135 -7 170 -50q-94 -74 -178 -92q-203 -43 -351 -43q-35 0 -57.5 30t-22.5 65z" />
<glyph unicode="&#x2013;" horiz-adv-x="866" d="M61 827q0 45 43 84q27 2 60 2q25 0 75 -2t74 -2q201 0 340 -12q-4 0 70 0q82 0 82 -18q0 -2 -2 -5q-10 -25 -61.5 -56.5t-84.5 -41.5q-174 -45 -526 -45q-33 0 -51.5 31t-18.5 65z" />
<glyph unicode="&#x2014;" horiz-adv-x="1189" d="M90 799q0 29 53 55q45 20 80 27q20 2 43 2q14 0 46 -2t46 -2h316q25 0 65.5 2t61.5 2q76 0 246 -17q86 -8 86 -41q0 -55 -82 -77q-51 -14 -283 -29q-342 -18 -518 -19q-20 0 -77.5 11.5t-63.5 21.5q-18 27 -19 66z" />
<glyph unicode="&#x2018;" horiz-adv-x="425" d="M131 1167q0 53 60.5 177t103.5 163q25 -8 29 -67q-37 -76 -37 -107q0 -35 34.5 -43t34.5 -45q0 -55 -22 -88q-18 -25 -53 -51.5t-62 -26.5q-35 0 -61.5 27t-26.5 61zM131 1167q0 -35 26.5 -61.5t61.5 -26.5q27 0 61.5 27t53.5 51q22 35 22 88q0 37 -34.5 45t-34.5 43 q0 31 37 107l-15 8q-49 -45 -108 -131q-70 -100 -70 -150z" />
<glyph unicode="&#x2019;" horiz-adv-x="413" d="M119 1323q0 55 22 88q18 25 53 51.5t62 26.5q35 0 60.5 -26.5t25.5 -61.5q0 -53 -60.5 -177t-103.5 -163q-23 8 -26 67q37 76 36 107q0 35 -34.5 43t-34.5 45z" />
<glyph unicode="&#x201a;" horiz-adv-x="434" d="M119 94q0 55 22 88q18 25 53 51.5t62 26.5q35 0 60.5 -26.5t25.5 -61.5q0 -53 -60.5 -177t-103.5 -163q-23 8 -26 68q37 76 36 106q0 35 -34.5 43t-34.5 45z" />
<glyph unicode="&#x201c;" horiz-adv-x="720" d="M131 1167q0 53 60.5 177t103.5 163q25 -8 29 -67q-37 -76 -37 -107q0 -35 34.5 -43t34.5 -45q0 -55 -22 -88q-18 -25 -53 -51.5t-62 -26.5q-35 0 -61.5 27t-26.5 61zM131 1167q0 -35 26.5 -61.5t61.5 -26.5q27 0 61.5 27t53.5 51q22 35 22 88q0 37 -34.5 45t-34.5 43 q0 31 37 107l-15 8q-49 -45 -108 -131q-70 -100 -70 -150zM438 1167q0 53 60.5 177t103.5 163q25 -8 29 -67q-37 -76 -37 -107q0 -35 35 -43t35 -45q0 -55 -23 -88q-18 -25 -53 -51.5t-62 -26.5q-35 0 -61.5 27t-26.5 61z" />
<glyph unicode="&#x201d;" horiz-adv-x="720" d="M119 1323q0 55 22 88q18 25 53 51.5t62 26.5q35 0 60.5 -26.5t25.5 -61.5q0 -53 -60.5 -177t-103.5 -163q-23 8 -26 67q37 76 36 107q0 35 -34.5 43t-34.5 45zM426 1323q0 55 23 88q18 25 53 51.5t61 26.5q35 0 60.5 -26.5t25.5 -61.5q0 -53 -60.5 -177t-103.5 -163 q-23 8 -26 67q37 76 37 107q0 35 -35 43t-35 45zM426 1323q0 -37 35 -45t35 -43q0 -31 -37 -107l14 -6q49 43 109 129q67 101 67 150q0 35 -25.5 61.5t-60.5 26.5q-27 0 -61.5 -26.5t-52.5 -51.5q-23 -33 -23 -88z" />
<glyph unicode="&#x201e;" horiz-adv-x="720" d="M119 94q0 55 22 88q18 25 53 51.5t62 26.5q35 0 60.5 -26.5t25.5 -61.5q0 -53 -60.5 -177t-103.5 -163q-23 8 -26 68q37 76 36 106q0 35 -34.5 43t-34.5 45zM426 94q0 55 23 88q18 25 53 51.5t61 26.5q35 0 60.5 -26.5t25.5 -61.5q0 -53 -60.5 -177t-103.5 -163 q-23 8 -26 68q37 76 37 106q0 35 -35 43t-35 45zM426 94q0 -37 35 -45t35 -43q0 -31 -37 -106l14 -6q49 43 109 129q67 100 67 149q0 35 -25.5 61.5t-60.5 26.5q-27 0 -61.5 -26.5t-52.5 -51.5q-23 -33 -23 -88z" />
<glyph unicode="&#x2022;" horiz-adv-x="794" d="M125 571q0 104 80 173t184 69q106 0 186 -69t80 -173q0 -102 -79.5 -170.5t-186.5 -68.5q-104 0 -184 68.5t-80 170.5z" />
<glyph unicode="&#x2026;" horiz-adv-x="1269" d="M98 61q0 80 72 127q47 31 72 31q77 0 77 -98q0 -59 -53 -100t-112 -41q-25 0 -40.5 28.5t-15.5 52.5zM508 61q0 80 72 127q47 31 72 31q77 0 77 -98q0 -59 -53 -100t-112 -41q-25 0 -40.5 28.5t-15.5 52.5zM917 61q0 80 72 127q47 31 72 31q77 0 77 -98q0 -59 -53 -100 t-112 -41q-25 0 -40.5 28.5t-15.5 52.5z" />
<glyph unicode="&#x202f;" horiz-adv-x="385" />
<glyph unicode="&#x2039;" horiz-adv-x="925" d="M131 573q0 47 78 113q66 57 121 78l385 139l16 -35q-387 -141 -387 -256q0 -88 168 -172q119 -59 250 -90l-14 -82q-272 47 -336 70q-154 57 -271 209q-10 12 -10 26z" />
<glyph unicode="&#x203a;" horiz-adv-x="874" d="M147 797l15 82q117 -18 231 -37q139 -27 219 -78q104 -63 142 -180q2 -11 2 -23q0 -53 -48.5 -106.5t-103.5 -71.5l-409 -139l-17 35q92 29 268 106q35 20 72 66.5t37 80.5q0 78 -166 168q-129 70 -242 97z" />
<glyph unicode="&#x205f;" horiz-adv-x="481" />
<glyph unicode="&#x20ac;" horiz-adv-x="1187" d="M25 899q0 23 24.5 29t46.5 10q-59 199 -59 279q0 135 73.5 220t206.5 87l701 6q33 0 90 -29.5t57 -58.5q0 -47 -75 -129q-55 -59 -113 -117l-100 25q8 16 67 84q45 51 45 92q0 76 -151 76q-57 0 -171 -3.5t-171 -3.5q-100 0 -160 -94q-49 -80 -49 -188q0 -115 14 -232 q25 2 53 2q281 0 484 -10q43 0 47 -2q29 -6 28 -31q0 -25 -37.5 -77t-60.5 -52q-240 0 -483 25q18 -66 47 -131q186 -4 395 -19q63 0 64 -36q0 -27 -56 -70q-12 -10 -153 -21l-176 -12q96 -180 252 -293q57 -39 141 -86q123 -63 133 -69q78 -49 106 -103q-78 12 -231 47 q-66 18 -131 37q-76 23 -123 53q-100 66 -180 185q-70 109 -137 219l-45 -2q-211 0 -211 88t98 88q10 0 31 -2h30q-31 68 -57 154q-25 4 -64.5 15t-39.5 50z" />
<glyph unicode="&#x2122;" horiz-adv-x="1452" d="M16 1417q0 29 27 33q51 6 170 6h72q303 0 319 -6q33 -12 33 -37q0 -20 -48 -64t-71 -49h-14q-14 0 -45 7q41 47 67 69q8 6 9 10q0 16 -129 17h-29q-6 -150 -6 -371q0 -199 30 -217q-90 -25 -170 -35q37 41 37 86l-2 537q-37 2 -76 2q-47 0 -77 -4q2 -12 69 -92l-69 6 q-18 2 -57.5 42t-39.5 60zM643 1452h268q27 0 66 -10q20 -6 33 -6q2 0 34 10q41 12 86 12q123 0 201 -76.5t78 -199.5q0 -98 -70 -228q-74 -139 -159 -170q2 10 55 134q51 117 51 231q0 102 -53 176q-57 82 -154 82q-25 0 -26 -12q68 -92 67 -219q0 -225 -151 -371 q-12 -12 -35 -21q0 4 33 125q31 113 30 203q0 106 -34 188q-47 109 -140 109q-37 0 -37 -25v-530q0 -23 37 -41q-55 -14 -164 -51q16 80 17 78l-2 544q0 27 -31 68z" />
<glyph unicode="&#x25fc;" horiz-adv-x="1064" d="M0 0v1065h1065v-1065h-1065z" />
</font>
</defs>
</svg>
